<svg width="362" height="1554" viewBox="0 0 362 1554" fill="none" xmlns="http://www.w3.org/2000/svg">
<path d="M294.226 0C331.505 0.000219447 361.726 30.2209 361.726 67.5C361.726 104.779 331.505 135 294.226 135H67.5C34.6393 135 8 161.639 8 194.5C8 227.361 34.6393 254 67.5 254H294.226C331.505 254 361.726 284.221 361.726 321.5C361.726 358.779 331.505 389 294.226 389H67.5C34.6393 389 8 415.639 8 448.5C8 481.361 34.6393 508 67.5 508H294.226C331.505 508 361.726 538.221 361.726 575.5C361.726 612.779 331.505 643 294.226 643H67.5C34.6393 643 8 669.639 8 702.5C8 735.361 34.6393 762 67.5 762H294.226C331.505 762 361.726 792.221 361.726 829.5C361.726 866.779 331.505 897 294.226 897H67.5C34.6393 897 8 923.639 8 956.5C8 989.361 34.6393 1016 67.5 1016H294.226C331.505 1016 361.726 1046.22 361.726 1083.5C361.726 1120.78 331.505 1151 294.226 1151H67.5C34.6393 1151 8 1177.64 8 1210.5C8 1243.36 34.6393 1270 67.5 1270H294.226C331.505 1270 361.726 1300.22 361.726 1337.5C361.726 1374.78 331.505 1405 294.226 1405H72.1084C36.7902 1405 8.15918 1433.63 8.15918 1468.95V1475.5C8.15918 1514.44 39.7231 1546 78.6592 1546H185.409V1554H78.6592C35.3049 1554 0.15918 1518.85 0.15918 1475.5V1468.95C0.15918 1429.21 32.372 1397 72.1084 1397H294.226C327.086 1397 353.726 1370.36 353.726 1337.5C353.726 1304.64 327.086 1278 294.226 1278H67.5C30.221 1278 0 1247.78 0 1210.5C0 1173.22 30.221 1143 67.5 1143H294.226C327.086 1143 353.726 1116.36 353.726 1083.5C353.726 1050.64 327.086 1024 294.226 1024H67.5C30.221 1024 0 993.779 0 956.5C0 919.221 30.221 889 67.5 889H294.226C327.086 889 353.726 862.361 353.726 829.5C353.726 796.639 327.086 770 294.226 770H67.5C30.221 770 0 739.779 0 702.5C0 665.221 30.221 635 67.5 635H294.226C327.086 635 353.726 608.361 353.726 575.5C353.726 542.639 327.086 516 294.226 516H67.5C30.221 516 0 485.779 0 448.5C0 411.221 30.221 381 67.5 381H294.226C327.086 381 353.726 354.361 353.726 321.5C353.726 288.639 327.086 262 294.226 262H67.5C30.221 262 0 231.779 0 194.5C0 157.221 30.221 127 67.5 127H294.226C327.086 127 353.726 100.361 353.726 67.5C353.726 34.6392 327.086 8.00022 294.226 8H72.0244V0H294.226Z" fill="#303030"/>
</svg>
