<svg width="362" height="88" viewBox="0 0 362 88" fill="none" xmlns="http://www.w3.org/2000/svg">
<rect width="362" height="88" rx="12" fill="#303030"/>
<g opacity="0.1">
<rect x="204.687" y="6.23438" width="17.0675" height="14.2227" rx="2.78232" fill="white"/>
<rect x="204.687" y="26.6699" width="17.0675" height="14.2227" rx="2.78232" fill="#FF0078"/>
<rect x="204.687" y="47.1084" width="17.0675" height="14.2227" rx="2.78232" fill="white"/>
<rect x="204.687" y="67.543" width="17.0675" height="14.2227" rx="2.78232" fill="#FF0078"/>
<rect x="226.826" y="6.23438" width="17.0675" height="14.2227" rx="2.78232" fill="white"/>
<rect x="226.826" y="26.6699" width="17.0675" height="14.2227" rx="2.78232" fill="#FF0078"/>
<rect x="226.826" y="47.1084" width="17.0675" height="14.2227" rx="2.78232" fill="white"/>
<rect x="226.826" y="67.543" width="17.0675" height="14.2227" rx="2.78232" fill="#FF0078"/>
<rect x="248.964" y="6.23438" width="17.0675" height="14.2227" rx="2.78232" fill="white"/>
<rect x="248.964" y="26.6699" width="17.0675" height="14.2227" rx="2.78232" fill="white"/>
<rect x="248.964" y="47.1084" width="17.0675" height="14.2227" rx="2.78232" fill="white"/>
<rect x="271.596" y="67.543" width="17.0675" height="14.2227" rx="2.78232" fill="white"/>
<rect x="271.102" y="6.23438" width="17.0675" height="14.2227" rx="2.78232" fill="#FF0078"/>
<rect x="271.102" y="26.6699" width="17.0675" height="14.2227" rx="2.78232" fill="white"/>
<rect x="271.102" y="47.1084" width="17.0675" height="14.2227" rx="2.78232" fill="#FF0078"/>
<rect x="248.964" y="67.543" width="17.0675" height="14.2227" rx="2.78232" fill="#FF0078"/>
<rect x="293.241" y="6.23438" width="17.0675" height="14.2227" rx="2.78232" fill="#FF0078"/>
<rect x="293.241" y="26.6699" width="17.0675" height="14.2227" rx="2.78232" fill="white"/>
<rect x="293.241" y="47.1084" width="17.0675" height="14.2227" rx="2.78232" fill="white"/>
<rect x="293.241" y="67.543" width="17.0675" height="14.2227" rx="2.78232" fill="white"/>
<rect x="315.378" y="6.23438" width="17.0675" height="14.2227" rx="2.78232" fill="#FF0078"/>
<rect x="315.378" y="26.6699" width="17.0675" height="14.2227" rx="2.78232" fill="white"/>
<rect x="315.378" y="47.1084" width="17.0675" height="14.2227" rx="2.78232" fill="#FF0078"/>
<rect x="338.011" y="67.543" width="17.0675" height="14.2227" rx="2.78232" fill="#FF0078"/>
<rect x="337.517" y="6.23438" width="17.0675" height="14.2227" rx="2.78232" fill="#FF0078"/>
<rect x="337.517" y="26.6699" width="17.0675" height="14.2227" rx="2.78232" fill="white"/>
<rect x="337.517" y="47.1084" width="17.0675" height="14.2227" rx="2.78232" fill="white"/>
<rect x="315.378" y="67.543" width="17.0675" height="14.2227" rx="2.78232" fill="white"/>
</g>
<path d="M28.2324 54.5273V55.0156H24.6094V55.9043H27.1973V57.7012H21.9727V58.6484H27.4707V59.1465H21.377V57.2422H26.6016V56.3828H21.3477V55.9043H23.9941V55.0156H20.3809V54.5273H28.2324ZM24.6094 50.5723V51.4219H27.4121V51.9199H24.6484C24.7266 52.916 26.2695 53.4873 27.7734 53.5898L27.5781 54.0781C26.2012 53.9463 24.8145 53.4824 24.3066 52.5938C23.7939 53.4824 22.4023 53.9463 21.0352 54.0781L20.8398 53.5898C22.334 53.4873 23.877 52.916 23.9746 51.9199H21.2109V51.4219H24.0039V50.5723H24.6094ZM31.8652 52.0371C31.8652 53.2578 32.8418 54.3711 34.0625 54.8008L33.7109 55.2988C32.749 54.9326 31.9482 54.1611 31.582 53.1992C31.2305 54.2734 30.415 55.0986 29.3945 55.5137L29.0625 55.0059C30.3125 54.5371 31.2598 53.3945 31.2695 52.0176V51.0703H31.8652V52.0371ZM36.123 56.2266V59.2539H35.5078V56.7246H30.3711V56.2266H36.123ZM36.123 50.6406V55.7188H35.5078V53.0332H33.4961V52.5156H35.5078V50.6406H36.123ZM41.582 50.7969C43.4766 50.7969 44.5996 51.3242 44.5996 52.291C44.5996 53.2676 43.4766 53.8047 41.582 53.8047C39.6875 53.8047 38.5645 53.2676 38.5645 52.291C38.5645 51.3242 39.6875 50.7969 41.582 50.7969ZM41.582 51.2754C40.1074 51.2754 39.1992 51.666 39.1992 52.291C39.1992 52.9453 40.1074 53.3262 41.582 53.3262C43.0664 53.3262 43.9746 52.9453 43.9746 52.291C43.9746 51.666 43.0664 51.2754 41.582 51.2754ZM45.5176 54.4492V54.957H37.666V54.4492H45.5176ZM44.4824 55.7773V57.623H39.2578V58.6387H44.7559V59.1465H38.6621V57.1445H43.8867V56.2656H38.6328V55.7773H44.4824ZM55.3516 50.6406V54.2441H56.8359V54.7715H55.3516V59.2539H54.7363V50.6406H55.3516ZM53.8184 52.0566V52.5742H48.6719V52.0566H50.9668V50.7285H51.582V52.0566H53.8184ZM51.2891 53.3652C52.5 53.3652 53.3691 54.166 53.3691 55.3184C53.3691 56.4707 52.5 57.2715 51.2891 57.2715C50.0781 57.2715 49.1992 56.4707 49.209 55.3184C49.1992 54.166 50.0781 53.3652 51.2891 53.3652ZM51.2891 53.8828C50.4297 53.8926 49.7949 54.498 49.7949 55.3184C49.7949 56.1387 50.4297 56.7441 51.2891 56.7344C52.1484 56.7441 52.7832 56.1387 52.7832 55.3184C52.7832 54.498 52.1484 53.8926 51.2891 53.8828ZM64.209 51.5488V52.418C64.1992 53.4727 64.1992 54.6445 63.8965 56.3438L63.2715 56.2656C63.584 54.6445 63.584 53.4531 63.5938 52.418V52.0664H58.2129V51.5488H64.209ZM65.2148 57.4473V57.9746H57.3633V57.4473H60.5273V54.332H61.1328V57.4473H65.2148ZM75.7715 50.6406V59.2539H75.1758V54.6152H73.8281V58.8047H73.2422V50.8359H73.8281V54.0879H75.1758V50.6406H75.7715ZM72.0215 51.6758V56.8809H68.7598V51.6758H72.0215ZM69.3359 52.1836V56.373H71.4355V52.1836H69.3359ZM79.4922 50.9727C80.7812 50.9824 81.6992 51.7539 81.709 52.8672C81.6992 53.9902 80.7812 54.752 79.4922 54.752C78.2031 54.752 77.2754 53.9902 77.2852 52.8672C77.2754 51.7539 78.2031 50.9824 79.4922 50.9727ZM79.4922 51.5C78.5645 51.5 77.8809 52.0762 77.8906 52.8672C77.8809 53.6582 78.5645 54.2344 79.4922 54.2344C80.4199 54.2344 81.1133 53.6582 81.1133 52.8672C81.1133 52.0762 80.4199 51.5 79.4922 51.5ZM84.1406 50.6406V55.0938H83.5254V50.6406H84.1406ZM84.1406 55.5332V57.5254H79.2188V58.6191H84.4727V59.127H78.623V57.0469H83.5352V56.041H78.5938V55.5332H84.1406ZM93.0566 50.6406V59.2539H92.4609V54.6152H91.1133V58.8047H90.5273V50.8359H91.1133V54.0879H92.4609V50.6406H93.0566ZM89.3066 51.6758V56.8809H86.0449V51.6758H89.3066ZM86.6211 52.1836V56.373H88.7207V52.1836H86.6211ZM96.7773 50.9727C98.0664 50.9824 98.9844 51.7539 98.9941 52.8672C98.9844 53.9902 98.0664 54.752 96.7773 54.752C95.4883 54.752 94.5605 53.9902 94.5703 52.8672C94.5605 51.7539 95.4883 50.9824 96.7773 50.9727ZM96.7773 51.5C95.8496 51.5 95.166 52.0762 95.1758 52.8672C95.166 53.6582 95.8496 54.2344 96.7773 54.2344C97.7051 54.2344 98.3984 53.6582 98.3984 52.8672C98.3984 52.0762 97.7051 51.5 96.7773 51.5ZM101.426 50.6406V55.0938H100.811V50.6406H101.426ZM101.426 55.5332V57.5254H96.5039V58.6191H101.758V59.127H95.9082V57.0469H100.82V56.041H95.8789V55.5332H101.426ZM27.3438 67.1914V67.6992H24.6094V69.6133H28.2715V70.1309H20.3809V69.6133H23.9941V67.6992H21.4258V63.3828H27.2363V63.9004H22.0508V65.2383H27.0605V65.7559H22.0508V67.1914H27.3438ZM35.8496 63.1191V63.832C35.8496 64.6475 35.8496 65.5898 35.5957 66.918H36.9043V67.4355H29.0234V66.918H34.9805C35.0977 66.3076 35.1611 65.7754 35.1953 65.2969L29.9219 65.5508L29.834 65.0137L35.2246 64.8281C35.2344 64.4717 35.2344 64.1396 35.2344 63.832V63.6367H30.0391V63.1191H35.8496ZM36.0449 70.5312V71.0488H30.0488V68.3828H30.6641V70.5312H36.0449ZM47.9688 69.5938V70.1211H40.0781V69.5938H43.6914V67.6504H41.0352V63.2656H41.6602V64.8867H46.3672V63.2656H46.9727V67.6504H44.3066V69.5938H47.9688ZM41.6602 67.1328H46.3672V65.4043H41.6602V67.1328ZM51.5137 64.0469C51.5137 65.2578 52.5 66.3516 53.7109 66.7812L53.3691 67.2793C52.4121 66.9131 51.6064 66.1514 51.2402 65.209C50.8789 66.2783 50.0586 67.1084 49.0527 67.5137L48.7207 67.0156C49.9707 66.5371 50.9082 65.3848 50.918 64.0078V63.0801H51.5137V64.0469ZM55.4297 62.6406V64.9551H56.7578V65.4824H55.4297V67.9238H54.8145V62.6406H55.4297ZM52.6855 68.1582C54.4434 68.1582 55.498 68.7246 55.498 69.6914C55.498 70.668 54.4434 71.2246 52.6855 71.2246C50.918 71.2246 49.8535 70.668 49.8633 69.6914C49.8535 68.7246 50.918 68.1582 52.6855 68.1582ZM52.6855 68.666C51.3281 68.666 50.459 69.0566 50.4688 69.6914C50.459 70.3359 51.3281 70.7266 52.6855 70.7363C54.043 70.7266 54.9023 70.3359 54.9023 69.6914C54.9023 69.0566 54.043 68.666 52.6855 68.666ZM61.2793 62.7969C63.1738 62.7969 64.2969 63.3242 64.2969 64.291C64.2969 65.2676 63.1738 65.8047 61.2793 65.8047C59.3848 65.8047 58.2617 65.2676 58.2617 64.291C58.2617 63.3242 59.3848 62.7969 61.2793 62.7969ZM61.2793 63.2754C59.8047 63.2754 58.8965 63.666 58.8965 64.291C58.8965 64.9453 59.8047 65.3262 61.2793 65.3262C62.7637 65.3262 63.6719 64.9453 63.6719 64.291C63.6719 63.666 62.7637 63.2754 61.2793 63.2754ZM65.2148 66.4492V66.957H57.3633V66.4492H65.2148ZM64.1797 67.7773V69.623H58.9551V70.6387H64.4531V71.1465H58.3594V69.1445H63.584V68.2656H58.3301V67.7773H64.1797ZM75.127 62.6406V64.75H76.4551V65.2871H75.127V67.6797H74.5117V62.6406H75.127ZM69.4238 63.1094V64.5156H72.1777V63.1094H72.7832V67.1035H68.8184V63.1094H69.4238ZM69.4238 66.5859H72.1777V65.0234H69.4238V66.5859ZM75.2051 68.1875V68.6855H70.3906V70.6191H75.3613V71.127H69.7754V68.1875H75.2051ZM79.3555 63.3242C80.6152 63.3242 81.5039 64.4863 81.5039 66.3027C81.5039 68.1191 80.6152 69.2812 79.3555 69.2812C78.0957 69.2812 77.2168 68.1191 77.2266 66.3027C77.2168 64.4863 78.0957 63.3242 79.3555 63.3242ZM79.3555 63.8711C78.4473 63.8711 77.8027 64.8672 77.8027 66.3027C77.8027 67.748 78.4473 68.7344 79.3555 68.7344C80.2832 68.7344 80.9082 67.748 80.918 66.3027C80.9082 64.8672 80.2832 63.8711 79.3555 63.8711ZM83.6914 62.6406V66.1465H85.1758V66.6738H83.6914V71.2539H83.0762V62.6406H83.6914ZM93.5938 69.5938V70.1211H85.7031V69.5938H89.3164V67.6504H86.6602V63.2656H87.2852V64.8867H91.9922V63.2656H92.5977V67.6504H89.9316V69.5938H93.5938ZM87.2852 67.1328H91.9922V65.4043H87.2852V67.1328ZM96.8359 65.1797C96.8359 66.5371 97.5977 68.0312 98.7305 68.6855L98.3594 69.1641C97.5098 68.6514 96.8604 67.6846 96.5527 66.5957C96.2402 67.7822 95.5469 68.8076 94.6777 69.3398L94.2676 68.8809C95.4297 68.2168 96.2402 66.6836 96.25 65.1992V63.4707H96.8359V65.1797ZM101.699 62.6406V71.2539H101.104V62.6406H101.699ZM99.9219 62.8359V70.8047H99.3359V66.3223H97.7637V65.7852H99.3359V62.8359H99.9219ZM110.879 69.584V70.1113H102.988V69.584H105V67.1914C104.243 66.8105 103.789 66.1904 103.789 65.4141C103.789 64.0859 105.078 63.2266 106.904 63.2168C108.74 63.2266 110.029 64.0859 110.029 65.4141C110.029 66.1807 109.585 66.7959 108.848 67.1719V69.584H110.879ZM106.904 63.7344C105.439 63.7246 104.375 64.4082 104.375 65.4141C104.375 66.4004 105.439 67.0938 106.904 67.084C108.369 67.0938 109.443 66.4004 109.443 65.4141C109.443 64.4082 108.369 63.7246 106.904 63.7344ZM105.605 69.584H108.232V67.4062C107.837 67.5234 107.388 67.582 106.904 67.582C106.431 67.582 105.991 67.5234 105.605 67.416V69.584ZM112.871 63.4219L112.822 68.4707H112.168L112.119 63.4219H112.871ZM112.5 70.541C112.207 70.541 111.973 70.3066 111.973 70.0234C111.973 69.7305 112.207 69.4961 112.5 69.4961C112.783 69.4961 113.018 69.7305 113.018 70.0234C113.018 70.3066 112.783 70.541 112.5 70.541Z" fill="white" fill-opacity="0.65"/>
<path d="M36.6992 26.6016V28.418H29.8633V29.5312H34.7656V33.8672H24.8633V34.8438H35.2344V36.6797H22.4219V32.1875H32.3047V31.3086H22.4023V29.5312H27.3828V28.418H20.5664V26.6016H36.6992ZM29.8438 19.0039V20.4102H35.1758V22.2461H30.1562C30.6445 23.2812 32.4609 24.1309 36.0547 24.2773L35.332 26.1133C32.0312 25.957 29.7461 25.1172 28.6133 23.7695C27.4902 25.1172 25.1953 25.957 21.875 26.1133L21.1914 24.2773C24.7559 24.1309 26.5625 23.2812 27.0703 22.2461H22.0898V20.4102H27.3828V19.0039H29.8438ZM44.4727 21.7969C44.4531 24.0039 45.7031 26.1523 48.5156 27.0508L47.1875 29.0234C45.2734 28.3789 43.9746 27.0996 43.2227 25.4883C42.4316 27.2461 41.0547 28.623 39.043 29.3359L37.6953 27.3438C40.6641 26.3867 41.9336 24.0625 41.9531 21.6406V19.9414H44.4727V21.7969ZM52.793 30.4102V36.7969H50.3125V32.3828H40.5859V30.4102H52.793ZM52.793 19.0234V29.6094H50.3125V24.375H46.9727V22.3242H50.3125V19.0234H52.793ZM60.6445 24.4336C60.6445 27.1289 61.6211 29.8242 64.1406 31.1914L62.7734 33.0078C61.1719 32.1875 60.1074 30.7422 59.4922 29.0039C58.8672 30.8984 57.8027 32.5 56.1914 33.4375L54.7656 31.5625C57.3242 30.0781 58.2812 27.1875 58.3008 24.4336V24.0234H55.4297V22.0312H58.3008V19.6289H60.625V22.0312H63.4375V24.0234H60.6445V24.4336ZM70.4688 19.0234V36.7969H68.1055V19.0234H70.4688ZM66.8359 19.3164V35.9766H64.4922V27.793H62.4023V25.7617H64.4922V19.3164H66.8359ZM86.9336 20.5859V22.6562C86.9336 25.2344 86.9336 27.7148 86.1133 31.5625L83.6328 31.3281C83.9844 29.8438 84.1797 28.5449 84.3164 27.3438L74.0039 27.8516L73.6914 25.8594L84.4336 25.4688C84.4824 24.502 84.4824 23.5742 84.4922 22.6562V22.5781H74.2383V20.5859H86.9336ZM88.5938 32.6367V34.668H72.3828V32.6367H88.5938Z" fill="#F9F9F9"/>
<path d="M334.026 22.4331C334.188 22.3353 334.455 22.2481 334.788 22.1913L334.84 22.1747L334.842 22.1831C336.223 21.9659 338.658 22.279 339.497 24.5449C338.822 23.8041 336.968 23.7694 335.498 24.1642L337.673 30.7327L337.711 30.8618C338.072 32.2 337.197 33.6335 335.702 34.1083C334.159 34.5983 332.539 33.8811 332.084 32.5074C331.63 31.1335 332.512 29.6227 334.055 29.1326C334.829 28.8869 335.623 28.9447 336.279 29.237L334.026 22.4331Z" fill="#3182F7"/>
<path d="M291.325 28.8821L288.522 37.4489C288.198 38.4391 287.048 38.9633 285.953 38.6197C284.857 38.2759 284.232 37.1942 284.556 36.2039C284.88 35.2139 286.031 34.6896 287.126 35.0334C287.563 35.1707 287.925 35.4267 288.182 35.7466L290.251 29.4231L286.589 28.2738L284.047 36.0442L283.977 36.2238C283.579 37.0963 282.503 37.5371 281.476 37.2148C280.381 36.8708 279.757 35.7894 280.08 34.7992C280.404 33.809 281.555 33.2848 282.65 33.6284C283.088 33.7659 283.45 34.0225 283.707 34.3428L286.036 27.2221L291.325 28.8821Z" fill="#3182F7"/>
<rect width="9.9639" height="4.29905" rx="2.14952" transform="matrix(0.832858 -0.553487 0.569438 0.822035 287.923 56.2324)" fill="#FF5AA8"/>
<path d="M308.561 30.2827L311.796 18.4575L311.879 18.2087C312.361 16.9974 313.793 16.3296 315.21 16.7014C316.722 17.0981 317.645 18.5275 317.271 19.8943C316.897 21.261 315.368 22.0481 313.856 21.6513C313.252 21.4927 312.744 21.1676 312.373 20.7491L309.985 29.4773L315.04 30.8038L317.974 20.0787C318.348 18.7118 319.876 17.9249 321.388 18.3217C322.9 18.7186 323.822 20.1487 323.448 21.5156C323.074 22.8822 321.546 23.6683 320.034 23.2717C319.43 23.1131 318.921 22.788 318.551 22.3695L315.862 32.1987L308.561 30.2827Z" fill="#FF9ACA"/>
<rect x="307.689" y="71.501" width="9.82244" height="4.36015" rx="2.18008" transform="rotate(-90 307.689 71.501)" fill="#FF5AA8"/>
<ellipse cx="312.05" cy="46.4477" rx="20.6381" ry="20.2143" fill="#FF9ACA"/>
<rect width="9.97727" height="4.29318" rx="2.14659" transform="matrix(-0.870459 -0.492241 0.507799 -0.861475 335.995 59.3271)" fill="#FF9ACA"/>
<rect x="312.049" y="71.501" width="9.82244" height="4.36015" rx="2.18008" transform="rotate(-90 312.049 71.501)" fill="#FF9ACA"/>
<rect x="316.555" y="43.457" width="2.84708" height="3.34278" rx="1.42354" transform="rotate(-90 316.555 43.457)" fill="black"/>
<rect x="304.202" y="43.3154" width="2.84708" height="3.34278" rx="1.42354" transform="rotate(-90 304.202 43.3154)" fill="black"/>
<path d="M307.834 45.7105C307.834 45.488 308.015 45.3076 308.237 45.3076H315.861C316.084 45.3076 316.264 45.488 316.264 45.7105V48.2105C316.264 50.5383 314.377 52.4253 312.049 52.4253C309.722 52.4253 307.834 50.5383 307.834 48.2105V45.7105Z" fill="#FF0078"/>
<ellipse cx="302.385" cy="46.3756" rx="3.41545" ry="3.34532" fill="#FF5AA8"/>
<ellipse cx="321.715" cy="46.3756" rx="3.41545" ry="3.34532" fill="#FF5AA8"/>
<mask id="mask0_100_2218" style="mask-type:alpha" maskUnits="userSpaceOnUse" x="307" y="45" width="10" height="8">
<path d="M307.834 45.7105C307.834 45.488 308.015 45.3076 308.237 45.3076H315.861C316.084 45.3076 316.264 45.488 316.264 45.7105V48.2105C316.264 50.5383 314.377 52.4253 312.049 52.4253C309.722 52.4253 307.834 50.5383 307.834 48.2105V45.7105Z" fill="#FF0078"/>
</mask>
<g mask="url(#mask0_100_2218)">
<ellipse cx="312.049" cy="51.5001" rx="4.36015" ry="3.06062" fill="#FF5AA8"/>
</g>
</svg>
