<svg width="18" height="18" viewBox="0 0 18 18" fill="none" xmlns="http://www.w3.org/2000/svg">
<path d="M0 4C0 1.79086 1.79086 0 4 0H14C16.2091 0 18 1.79086 18 4V14C18 16.2091 16.2091 18 14 18H4C1.79086 18 0 16.2091 0 14V4Z" fill="#2F2F2F"/>
<path d="M14 17.5V18H4V17.5H14ZM17.5 14V4C17.5 2.067 15.933 0.5 14 0.5H4C2.067 0.5 0.5 2.067 0.5 4V14C0.5 15.933 2.067 17.5 4 17.5V18L3.79395 17.9951C1.7488 17.8913 0.108652 16.2512 0.00488281 14.2061L0 14V4C0 1.79086 1.79086 1.61064e-08 4 0H14C16.2091 0 18 1.79086 18 4V14C18 16.14 16.3194 17.8879 14.2061 17.9951L14 18V17.5C15.933 17.5 17.5 15.933 17.5 14Z" fill="#B6B6B6"/>
<path d="M13.6719 12.0781C12.4141 12.0781 11.6953 11.0234 11.6953 9.17188C11.6953 7.33594 12.4297 6.26562 13.6719 6.26562C14.9141 6.26562 15.6484 7.33594 15.6484 9.17188C15.6484 11.0234 14.9219 12.0781 13.6719 12.0781ZM13.6719 11.4531C14.4844 11.4531 14.9609 10.6328 14.9609 9.17188C14.9609 7.71094 14.4844 6.875 13.6719 6.875C12.8594 6.875 12.375 7.71094 12.375 9.17188C12.375 10.6328 12.8516 11.4531 13.6719 11.4531Z" fill="white" fill-opacity="0.65"/>
<path d="M8.89062 12.0781C7.86719 12.0781 7.09375 11.4453 7.05469 10.5781H7.73438C7.78906 11.0859 8.28125 11.4609 8.89062 11.4609C9.625 11.4609 10.1562 10.9219 10.1562 10.2109C10.1562 9.47656 9.60156 8.9375 8.84375 8.92969C8.36719 8.92188 8 9.07031 7.78906 9.4375H7.10938L7.50781 6.34375H10.5703V6.96875H8.09375L7.88281 8.625H7.9375C8.1875 8.42969 8.57031 8.29688 8.96875 8.29688C10.0469 8.29688 10.8438 9.09375 10.8438 10.1953C10.8438 11.2891 10.0156 12.0781 8.89062 12.0781Z" fill="white" fill-opacity="0.65"/>
<path d="M3.6875 11.0078V9.49219H2.17969V8.85938H3.6875V7.35156H4.32031V8.85938H5.83594V9.49219H4.32031V11.0078H3.6875Z" fill="white" fill-opacity="0.65"/>
</svg>
