<svg width="28" height="28" viewBox="0 0 28 28" fill="none" xmlns="http://www.w3.org/2000/svg">
<path d="M12.8335 4.6665H4.66683C4.04799 4.6665 3.4545 4.91234 3.01691 5.34992C2.57933 5.78751 2.3335 6.381 2.3335 6.99984V23.3332C2.3335 23.952 2.57933 24.5455 3.01691 24.9831C3.4545 25.4207 4.04799 25.6665 4.66683 25.6665H21.0002C21.619 25.6665 22.2125 25.4207 22.6501 24.9831C23.0877 24.5455 23.3335 23.952 23.3335 23.3332V15.1665" stroke="#4A4A4A" stroke-width="2" stroke-linecap="round" stroke-linejoin="round"/>
<path d="M21.5835 2.91677C22.0476 2.45264 22.6771 2.19189 23.3335 2.19189C23.9899 2.19189 24.6194 2.45264 25.0835 2.91677C25.5476 3.3809 25.8084 4.01039 25.8084 4.66677C25.8084 5.32315 25.5476 5.95264 25.0835 6.41677L14.0002 17.5001L9.3335 18.6668L10.5002 14.0001L21.5835 2.91677Z" stroke="#4A4A4A" stroke-width="2" stroke-linecap="round" stroke-linejoin="round"/>
</svg>
