<svg width="36" height="45" viewBox="0 0 36 45" fill="none" xmlns="http://www.w3.org/2000/svg">
<path d="M35.3682 36.6465L35.3574 37.041C35.1351 41.0939 31.5045 44.3173 27.0586 44.3174C22.4696 44.3172 18.749 40.8825 18.749 36.6465C18.7492 32.4106 22.4697 28.9768 27.0586 28.9766C28.8913 28.9766 30.5851 29.5254 31.959 30.4531V9.80176H16.6191V36.6465L16.6084 37.041C16.3861 41.0939 12.7554 44.3173 8.30957 44.3174C3.72039 44.3174 0 40.8826 0 36.6465C0.000139274 32.4104 3.72048 28.9766 8.30957 28.9766C10.1424 28.9766 11.836 29.5253 13.21 30.4531V0H35.3682V36.6465ZM16.6191 6.39258H31.959V3.40918H16.6191V6.39258Z" fill="#FF0078"/>
</svg>
