<svg width="36" height="45" viewBox="0 0 36 45" fill="none" xmlns="http://www.w3.org/2000/svg">
<path d="M35.3691 0V36.6465L35.3584 37.041C35.1361 41.0938 31.5052 44.3171 27.0596 44.3174C22.4704 44.3174 18.75 40.8826 18.75 36.6465C18.7502 32.4105 22.4705 28.9766 27.0596 28.9766C28.8922 28.9767 30.5861 29.5253 31.96 30.4531V3.40918H16.6191V36.6465L16.6084 37.041C16.3861 41.0939 12.7554 44.3173 8.30957 44.3174C3.72039 44.3174 0 40.8826 0 36.6465C0.000139274 32.4104 3.72048 28.9766 8.30957 28.9766C10.1424 28.9766 11.836 29.5253 13.21 30.4531V0H35.3691Z" fill="#FF5AA8"/>
</svg>
