<svg width="24" height="24" viewBox="0 0 24 24" fill="none" xmlns="http://www.w3.org/2000/svg">
<circle cx="12" cy="12.0005" r="10.5066" transform="rotate(-8.86367 12 12.0005)" fill="#FF9ACA"/>
<circle cx="12.0609" cy="12.0449" r="8.22485" transform="rotate(-8.86367 12.0609 12.0449)" fill="#FF5AA8"/>
<path d="M11.958 6.26389C11.9992 6.17757 12.1221 6.17757 12.1633 6.26389L13.761 9.61231C13.7776 9.64705 13.8106 9.67105 13.8488 9.67608L17.5271 10.1609C17.6219 10.1734 17.6599 10.2903 17.5905 10.3561L14.8997 12.9104C14.8718 12.9369 14.8592 12.9758 14.8662 13.0136L15.5417 16.6617C15.5591 16.7557 15.4597 16.828 15.3757 16.7823L12.1149 15.0126C12.081 14.9942 12.0402 14.9942 12.0064 15.0126L8.7456 16.7823C8.66154 16.828 8.56214 16.7557 8.57955 16.6617L9.25507 13.0136C9.26208 12.9758 9.24946 12.9369 9.22155 12.9104L6.53075 10.3561C6.46139 10.2903 6.49935 10.1734 6.59418 10.1609L10.2725 9.67608C10.3106 9.67105 10.3436 9.64705 10.3602 9.61231L11.958 6.26389Z" fill="#FF9ACA"/>
</svg>
