<svg width="58" height="58" viewBox="0 0 58 58" fill="none" xmlns="http://www.w3.org/2000/svg">
<circle cx="28.9906" cy="28.9906" r="28.9906" fill="#4A4A4A"/>
<mask id="mask0_83_1807" style="mask-type:alpha" maskUnits="userSpaceOnUse" x="0" y="0" width="58" height="58">
<circle cx="28.9906" cy="28.9906" r="28.9906" fill="#C8C8C8"/>
</mask>
<g mask="url(#mask0_83_1807)">
<rect x="1.56885" y="51.3984" width="11.3232" height="4.92315" rx="2.46157" transform="rotate(-34.1567 1.56885 51.3984)" fill="#FF5AA8"/>
<path d="M24.8718 21.4849L25.2115 20.2171L25.2125 20.2173L28.5175 7.88291C28.52 7.87295 28.522 7.86243 28.5246 7.85247C28.947 6.27694 30.6732 5.37096 32.3801 5.82824C34.087 6.28569 35.1289 7.93337 34.7069 9.50902C34.2847 11.0848 32.5583 11.9915 30.8512 11.5342C30.1691 11.3514 29.5953 10.9765 29.1766 10.494L26.4803 20.557L32.1853 22.0857L35.4984 9.72107C35.9209 8.14568 37.6479 7.23978 39.3548 7.6971C41.0618 8.1546 42.1036 9.80308 41.6813 11.3788C41.2589 12.9543 39.5327 13.8603 37.8259 13.403C37.1434 13.2202 36.5691 12.8454 36.1504 12.3626L33.1143 23.6934L24.8718 21.4849Z" fill="#FF9ACA"/>
<rect x="23.8872" y="69.0005" width="11.3232" height="4.92315" rx="2.46157" transform="rotate(-90 23.8872 69.0005)" fill="#FF5AA8"/>
<circle cx="28.8102" cy="40.1183" r="23.3029" fill="#FF9ACA"/>
<rect x="55.8477" y="54.9663" width="11.3232" height="4.92315" rx="2.46157" transform="rotate(-150 55.8477 54.9663)" fill="#FF9ACA"/>
<rect x="28.8105" y="69.0005" width="11.3232" height="4.92315" rx="2.46157" transform="rotate(-90 28.8105 69.0005)" fill="#FF9ACA"/>
<rect x="33.8975" y="36.6719" width="3.2821" height="3.77441" rx="1.64105" transform="rotate(-90 33.8975 36.6719)" fill="black"/>
<rect x="19.9482" y="36.5078" width="3.2821" height="3.77441" rx="1.64105" transform="rotate(-90 19.9482 36.5078)" fill="black"/>
<path d="M24.0518 39.2691C24.0518 39.0126 24.2597 38.8047 24.5162 38.8047H33.1054C33.3619 38.8047 33.5698 39.0126 33.5698 39.2691V42.2509C33.5698 44.8792 31.4391 47.0099 28.8108 47.0099V47.0099C26.1825 47.0099 24.0518 44.8792 24.0518 42.2509V39.2691Z" fill="#FF0078"/>
<circle cx="17.897" cy="40.0362" r="3.85646" fill="#FF5AA8"/>
<circle cx="39.7237" cy="40.0362" r="3.85646" fill="#FF5AA8"/>
<mask id="mask1_83_1807" style="mask-type:alpha" maskUnits="userSpaceOnUse" x="24" y="38" width="10" height="10">
<path d="M24.0518 39.2691C24.0518 39.0126 24.2597 38.8047 24.5162 38.8047H33.1054C33.3619 38.8047 33.5698 39.0126 33.5698 39.2691V42.2509C33.5698 44.8792 31.4391 47.0099 28.8108 47.0099V47.0099C26.1825 47.0099 24.0518 44.8792 24.0518 42.2509V39.2691Z" fill="#FF0078"/>
</mask>
<g mask="url(#mask1_83_1807)">
<ellipse cx="28.8104" cy="45.9433" rx="4.92315" ry="3.52825" fill="#FF5AA8"/>
</g>
</g>
</svg>
