<svg width="402" height="64" viewBox="0 0 402 64" fill="none" xmlns="http://www.w3.org/2000/svg">
<rect width="402" height="64" fill="#191919"/>
<path d="M41.9766 49V40.5156H43.0312V44.2891H47.5195V40.5156H48.5859V49H47.5195V45.2148H43.0312V49H41.9766ZM52.9219 49.1289C51.1875 49.1289 50.0156 47.8281 50.0156 45.8477C50.0156 43.8672 51.1875 42.5547 52.9219 42.5547C54.6445 42.5547 55.8047 43.8672 55.8047 45.8477C55.8047 47.8281 54.6445 49.1289 52.9219 49.1289ZM52.9219 48.2383C54.1992 48.2383 54.7969 47.1133 54.7969 45.8477C54.7969 44.582 54.1992 43.4453 52.9219 43.4453C51.6211 43.4453 51.0234 44.582 51.0234 45.8477C51.0234 47.1133 51.6211 48.2383 52.9219 48.2383ZM57.1289 49V42.6367H58.1016V43.6328H58.1836C58.4531 42.9531 59.0625 42.5547 59.8945 42.5547C60.7266 42.5547 61.2891 42.9531 61.5938 43.6328H61.6641C61.9922 42.9766 62.6602 42.5547 63.5742 42.5547C64.7109 42.5547 65.5195 43.2461 65.5195 44.7461V49H64.5117V44.7578C64.5117 43.8203 63.9141 43.457 63.2227 43.457C62.332 43.457 61.8281 44.0547 61.8281 44.8633V49H60.8086V44.6523C60.8086 43.9375 60.293 43.457 59.5664 43.457C58.8047 43.457 58.1367 44.1016 58.1367 45.0273V49H57.1289ZM69.8086 49.1289C67.9688 49.1289 66.832 47.8281 66.832 45.8711C66.832 43.9141 67.9805 42.5547 69.7148 42.5547C71.0508 42.5547 72.457 43.375 72.457 45.7305V46.1523H67.8398C67.8867 47.5 68.6719 48.2383 69.8086 48.2383C70.5703 48.2383 71.0508 47.9102 71.2852 47.5117H72.3633C72.0586 48.4727 71.1211 49.1289 69.8086 49.1289ZM67.8516 45.2969H71.4375C71.4375 44.2305 70.7578 43.4453 69.7148 43.4453C68.6133 43.4453 67.9102 44.3125 67.8516 45.2969Z" fill="white"/>
<path d="M67 22.4992V32.9992C67 33.2313 66.9078 33.4538 66.7437 33.6179C66.5796 33.782 66.3571 33.8742 66.125 33.8742H60C59.7679 33.8742 59.5454 33.782 59.3813 33.6179C59.2172 33.4538 59.125 33.2313 59.125 32.9992V27.3117C59.125 27.1957 59.0789 27.0844 58.9969 27.0023C58.9148 26.9203 58.8035 26.8742 58.6875 26.8742H54.3125C54.1965 26.8742 54.0852 26.9203 54.0031 27.0023C53.9211 27.0844 53.875 27.1957 53.875 27.3117V32.9992C53.875 33.2313 53.7828 33.4538 53.6187 33.6179C53.4546 33.782 53.2321 33.8742 53 33.8742H46.875C46.6429 33.8742 46.4204 33.782 46.2563 33.6179C46.0922 33.4538 46 33.2313 46 32.9992V22.4992C46.0002 22.0351 46.1847 21.5902 46.513 21.2622L55.263 12.5122C55.5911 12.1842 56.0361 12 56.5 12C56.9639 12 57.4089 12.1842 57.737 12.5122L66.487 21.2622C66.8153 21.5902 66.9998 22.0351 67 22.4992Z" fill="#C8C8C8"/>
<path d="M161.418 15.555L153.236 13.0355C153.114 12.9978 152.985 12.99 152.859 13.0127C152.733 13.0353 152.615 13.0878 152.512 13.1659C152.41 13.2441 152.327 13.3457 152.269 13.4626C152.212 13.5796 152.182 13.7087 152.182 13.8396V25.2049C151.344 24.4356 150.275 23.9848 149.152 23.9279C148.029 23.8709 146.921 24.2113 146.013 24.8921C145.106 25.5729 144.453 26.5528 144.165 27.6681C143.876 28.7835 143.97 29.9666 144.429 31.0199C144.888 32.0731 145.686 32.9326 146.688 33.4547C147.691 33.9768 148.838 34.1299 149.937 33.8884C151.036 33.6469 152.022 33.0254 152.728 32.1278C153.435 31.2302 153.82 30.1109 153.819 28.957V20.0073L160.947 22.2025C161.069 22.2401 161.198 22.2479 161.324 22.2252C161.45 22.2026 161.568 22.1501 161.671 22.072C161.773 21.9939 161.856 21.8923 161.913 21.7753C161.971 21.6583 162 21.5292 162 21.3983V16.3592C162 16.1786 161.944 16.0029 161.839 15.858C161.734 15.7132 161.586 15.6069 161.418 15.555Z" fill="#C8C8C8"/>
<path d="M143.704 43.6484C143.61 42.8164 142.848 42.3359 141.829 42.3359C140.704 42.3359 139.965 42.9219 139.965 43.7305C139.965 44.6211 140.961 44.9492 141.606 45.1133L142.45 45.3477C143.364 45.582 144.852 46.1094 144.852 47.6914C144.852 49.0742 143.739 50.1523 141.77 50.1523C139.942 50.1523 138.805 49.2031 138.711 47.7969H139.79C139.883 48.7461 140.762 49.1914 141.77 49.1914C142.942 49.1914 143.821 48.5938 143.821 47.668C143.821 46.8477 143.036 46.5312 142.145 46.2734L141.102 45.9922C139.766 45.6055 138.946 44.9258 138.946 43.7773C138.946 42.3477 140.223 41.3984 141.864 41.3984C143.504 41.3984 144.688 42.3594 144.735 43.6484H143.704ZM148.836 50.1289C147.102 50.1289 145.93 48.8281 145.93 46.8477C145.93 44.8672 147.102 43.5547 148.836 43.5547C150.559 43.5547 151.719 44.8672 151.719 46.8477C151.719 48.8281 150.559 50.1289 148.836 50.1289ZM148.836 49.2383C150.114 49.2383 150.711 48.1133 150.711 46.8477C150.711 45.582 150.114 44.4453 148.836 44.4453C147.536 44.4453 146.938 45.582 146.938 46.8477C146.938 48.1133 147.536 49.2383 148.836 49.2383ZM154.051 46.1797V50H153.043V43.6367H154.016V44.6328H154.098C154.403 43.9883 154.989 43.5547 155.961 43.5547C157.25 43.5547 158.106 44.3398 158.106 45.957V50H157.098V46.0273C157.098 45.043 156.559 44.457 155.657 44.457C154.731 44.457 154.051 45.0781 154.051 46.1797ZM162.301 52.5195C160.766 52.5195 159.723 51.8516 159.606 50.668H160.661C160.801 51.3125 161.399 51.6406 162.301 51.6406C163.391 51.6406 164.059 51.1719 164.059 50.1172V48.8281H163.977C163.766 49.1797 163.356 49.9062 162.125 49.9062C160.579 49.9062 159.418 48.7344 159.418 46.7305C159.418 44.7734 160.543 43.5547 162.137 43.5547C163.368 43.5547 163.766 44.3047 164 44.6445H164.083V43.6367H165.067V50.1758C165.067 51.8164 163.848 52.5195 162.301 52.5195ZM162.266 49.0039C163.426 49.0039 164.083 48.1719 164.083 46.7656C164.083 45.4062 163.45 44.457 162.266 44.457C161.047 44.457 160.438 45.4883 160.438 46.7656C160.438 48.0898 161.059 49.0039 162.266 49.0039Z" fill="white"/>
<path d="M239.018 42.6484C238.924 41.8164 238.163 41.3359 237.143 41.3359C236.018 41.3359 235.28 41.9219 235.28 42.7305C235.28 43.6211 236.276 43.9492 236.92 44.1133L237.764 44.3477C238.678 44.582 240.167 45.1094 240.167 46.6914C240.167 48.0742 239.053 49.1523 237.084 49.1523C235.256 49.1523 234.12 48.2031 234.026 46.7969H235.104C235.198 47.7461 236.077 48.1914 237.084 48.1914C238.256 48.1914 239.135 47.5938 239.135 46.668C239.135 45.8477 238.35 45.5312 237.459 45.2734L236.417 44.9922C235.081 44.6055 234.26 43.9258 234.26 42.7773C234.26 41.3477 235.538 40.3984 237.178 40.3984C238.819 40.3984 240.002 41.3594 240.049 42.6484H239.018ZM244.151 49.1289C242.417 49.1289 241.245 47.8281 241.245 45.8477C241.245 43.8672 242.417 42.5547 244.151 42.5547C245.874 42.5547 247.034 43.8672 247.034 45.8477C247.034 47.8281 245.874 49.1289 244.151 49.1289ZM244.151 48.2383C245.428 48.2383 246.026 47.1133 246.026 45.8477C246.026 44.582 245.428 43.4453 244.151 43.4453C242.85 43.4453 242.252 44.582 242.252 45.8477C242.252 47.1133 242.85 48.2383 244.151 48.2383ZM250.959 49.1289C249.155 49.1289 248.053 47.7578 248.053 45.8477C248.053 43.9141 249.202 42.5547 250.936 42.5547C252.295 42.5547 253.303 43.3516 253.467 44.5586H252.459C252.319 43.9727 251.803 43.4453 250.959 43.4453C249.823 43.4453 249.061 44.3828 249.061 45.8125C249.061 47.2891 249.799 48.2266 250.959 48.2266C251.709 48.2266 252.284 47.8281 252.459 47.125H253.467C253.303 48.2617 252.377 49.1289 250.959 49.1289ZM254.709 49V42.6367H255.717V49H254.709ZM255.213 41.582C254.827 41.582 254.51 41.2891 254.51 40.9141C254.51 40.5391 254.827 40.2461 255.213 40.2461C255.6 40.2461 255.928 40.5391 255.928 40.9141C255.928 41.2891 255.6 41.582 255.213 41.582ZM257.018 47.1953C257.018 45.7305 258.307 45.4023 259.409 45.3203C259.813 45.291 260.844 45.2383 261.131 45.2266V44.7109C261.131 43.9023 260.651 43.4336 259.69 43.4336C258.881 43.4336 258.401 43.8086 258.26 44.2891H257.206C257.334 43.2695 258.331 42.5547 259.737 42.5547C260.569 42.5547 262.127 42.8008 262.127 44.8047V49H261.131V48.1328H261.084C260.874 48.5664 260.288 49.1523 259.186 49.1523C257.979 49.1523 257.018 48.4375 257.018 47.1953ZM258.026 47.2422C258.026 47.9102 258.588 48.25 259.362 48.25C260.499 48.25 261.131 47.4883 261.131 46.6914V46.0469L259.526 46.1641C258.612 46.2227 258.026 46.5508 258.026 47.2422ZM264.752 40.5156V49H263.745V40.5156H264.752Z" fill="white"/>
<path d="M249.938 12C247.038 12.0032 244.258 13.1565 242.208 15.207C240.157 17.2575 239.004 20.0377 239 22.9375V32.125C239 32.5891 239.185 33.0342 239.513 33.3624C239.841 33.6906 240.286 33.875 240.75 33.875H249.938C252.839 33.875 255.621 32.7227 257.672 30.6715C259.723 28.6203 260.875 25.8383 260.875 22.9375C260.875 20.0367 259.723 17.2547 257.672 15.2035C255.621 13.1523 252.839 12 249.938 12ZM245.125 24.6875C244.866 24.6875 244.612 24.6105 244.396 24.4663C244.18 24.3221 244.012 24.1171 243.913 23.8773C243.814 23.6374 243.788 23.3735 243.838 23.1189C243.889 22.8643 244.014 22.6305 244.197 22.4469C244.381 22.2634 244.615 22.1384 244.869 22.0877C245.124 22.0371 245.388 22.0631 245.628 22.1624C245.868 22.2617 246.073 22.43 246.217 22.6458C246.361 22.8617 246.438 23.1154 246.438 23.375C246.438 23.7231 246.3 24.0569 246.054 24.3031C245.807 24.5492 245.474 24.6875 245.125 24.6875ZM249.938 24.6875C249.678 24.6875 249.425 24.6105 249.209 24.4663C248.993 24.3221 248.825 24.1171 248.725 23.8773C248.626 23.6374 248.6 23.3735 248.651 23.1189C248.701 22.8643 248.826 22.6305 249.01 22.4469C249.193 22.2634 249.427 22.1384 249.682 22.0877C249.937 22.0371 250.2 22.0631 250.44 22.1624C250.68 22.2617 250.885 22.43 251.029 22.6458C251.174 22.8617 251.25 23.1154 251.25 23.375C251.25 23.7231 251.112 24.0569 250.866 24.3031C250.62 24.5492 250.286 24.6875 249.938 24.6875ZM254.75 24.6875C254.491 24.6875 254.237 24.6105 254.021 24.4663C253.805 24.3221 253.637 24.1171 253.538 23.8773C253.439 23.6374 253.413 23.3735 253.463 23.1189C253.514 22.8643 253.639 22.6305 253.822 22.4469C254.006 22.2634 254.24 22.1384 254.494 22.0877C254.749 22.0371 255.013 22.0631 255.253 22.1624C255.493 22.2617 255.698 22.43 255.842 22.6458C255.986 22.8617 256.063 23.1154 256.063 23.375C256.063 23.7231 255.925 24.0569 255.679 24.3031C255.432 24.5492 255.099 24.6875 254.75 24.6875Z" fill="#C8C8C8"/>
<path d="M338.147 40.5156H339.413L342.272 47.5H342.377L345.237 40.5156H346.502V49H345.506V42.5898H345.424L342.788 49H341.85L339.213 42.5898H339.143V49H338.147V40.5156ZM348.893 51.3906C348.67 51.3906 348.459 51.3789 348.331 51.3672V50.4648C348.436 50.4766 348.67 50.4883 348.823 50.4883C349.233 50.4883 349.573 50.4531 349.913 49.5273L350.1 49.0469L347.745 42.6367H348.846L350.581 47.6875H350.651L352.385 42.6367H353.487L350.792 49.9141C350.417 50.9102 349.795 51.3906 348.893 51.3906Z" fill="white"/>
<path d="M356.633 33.4405C356.556 33.5735 356.445 33.684 356.312 33.7608C356.179 33.8376 356.028 33.878 355.875 33.878H334.875C334.721 33.8778 334.57 33.8373 334.437 33.7604C334.305 33.6835 334.194 33.5731 334.117 33.4401C334.041 33.3071 334 33.1563 334 33.0028C334.001 32.8492 334.041 32.6984 334.118 32.5655C335.783 29.6856 338.351 27.6206 341.346 26.6417C339.864 25.7596 338.713 24.4154 338.069 22.8156C337.425 21.2158 337.324 19.4488 337.782 17.786C338.239 16.1233 339.23 14.6566 340.601 13.6114C341.973 12.5661 343.65 12 345.375 12C347.099 12 348.776 12.5661 350.148 13.6114C351.519 14.6566 352.51 16.1233 352.967 17.786C353.425 19.4488 353.324 21.2158 352.68 22.8156C352.036 24.4154 350.885 25.7596 349.403 26.6417C352.399 27.6206 354.966 29.6856 356.631 32.5655C356.708 32.6984 356.749 32.8492 356.749 33.0028C356.749 33.1564 356.709 33.3074 356.633 33.4405Z" fill="#C8C8C8"/>
<rect x="9" width="96" height="2" fill="#FF5AA8"/>
</svg>
