<svg width="402" height="66" viewBox="0 0 402 66" fill="none" xmlns="http://www.w3.org/2000/svg">
<rect x="297" width="96" height="2" fill="#FF5AA8"/>
<rect width="402" height="64" transform="translate(0 2)" fill="#191919"/>
<path d="M41.9766 51V42.5156H43.0312V46.2891H47.5195V42.5156H48.5859V51H47.5195V47.2148H43.0312V51H41.9766ZM52.9219 51.1289C51.1875 51.1289 50.0156 49.8281 50.0156 47.8477C50.0156 45.8672 51.1875 44.5547 52.9219 44.5547C54.6445 44.5547 55.8047 45.8672 55.8047 47.8477C55.8047 49.8281 54.6445 51.1289 52.9219 51.1289ZM52.9219 50.2383C54.1992 50.2383 54.7969 49.1133 54.7969 47.8477C54.7969 46.582 54.1992 45.4453 52.9219 45.4453C51.6211 45.4453 51.0234 46.582 51.0234 47.8477C51.0234 49.1133 51.6211 50.2383 52.9219 50.2383ZM57.1289 51V44.6367H58.1016V45.6328H58.1836C58.4531 44.9531 59.0625 44.5547 59.8945 44.5547C60.7266 44.5547 61.2891 44.9531 61.5938 45.6328H61.6641C61.9922 44.9766 62.6602 44.5547 63.5742 44.5547C64.7109 44.5547 65.5195 45.2461 65.5195 46.7461V51H64.5117V46.7578C64.5117 45.8203 63.9141 45.457 63.2227 45.457C62.332 45.457 61.8281 46.0547 61.8281 46.8633V51H60.8086V46.6523C60.8086 45.9375 60.293 45.457 59.5664 45.457C58.8047 45.457 58.1367 46.1016 58.1367 47.0273V51H57.1289ZM69.8086 51.1289C67.9688 51.1289 66.832 49.8281 66.832 47.8711C66.832 45.9141 67.9805 44.5547 69.7148 44.5547C71.0508 44.5547 72.457 45.375 72.457 47.7305V48.1523H67.8398C67.8867 49.5 68.6719 50.2383 69.8086 50.2383C70.5703 50.2383 71.0508 49.9102 71.2852 49.5117H72.3633C72.0586 50.4727 71.1211 51.1289 69.8086 51.1289ZM67.8516 47.2969H71.4375C71.4375 46.2305 70.7578 45.4453 69.7148 45.4453C68.6133 45.4453 67.9102 46.3125 67.8516 47.2969Z" fill="white"/>
<path d="M67 24.4992V34.9992C67 35.2313 66.9078 35.4538 66.7437 35.6179C66.5796 35.782 66.3571 35.8742 66.125 35.8742H60C59.7679 35.8742 59.5454 35.782 59.3813 35.6179C59.2172 35.4538 59.125 35.2313 59.125 34.9992V29.3117C59.125 29.1957 59.0789 29.0844 58.9969 29.0023C58.9148 28.9203 58.8035 28.8742 58.6875 28.8742H54.3125C54.1965 28.8742 54.0852 28.9203 54.0031 29.0023C53.9211 29.0844 53.875 29.1957 53.875 29.3117V34.9992C53.875 35.2313 53.7828 35.4538 53.6187 35.6179C53.4546 35.782 53.2321 35.8742 53 35.8742H46.875C46.6429 35.8742 46.4204 35.782 46.2563 35.6179C46.0922 35.4538 46 35.2313 46 34.9992V24.4992C46.0002 24.0351 46.1847 23.5902 46.513 23.2622L55.263 14.5122C55.5911 14.1842 56.0361 14 56.5 14C56.9639 14 57.4089 14.1842 57.737 14.5122L66.487 23.2622C66.8153 23.5902 66.9998 24.0351 67 24.4992Z" fill="#C8C8C8"/>
<path d="M145.367 51V42.5156H148.344C150.125 42.5156 150.957 43.5117 150.957 44.7656C150.957 45.8555 150.312 46.3477 149.574 46.5469V46.6289C150.359 46.6758 151.297 47.4023 151.297 48.75C151.297 50.0273 150.453 51 148.449 51H145.367ZM148.438 50.0625C149.762 50.0625 150.277 49.4766 150.277 48.7383C150.277 47.8711 149.586 47.1445 148.496 47.1445H146.422V50.0625H148.438ZM148.309 46.2305C149.223 46.2305 149.949 45.668 149.949 44.7773C149.949 44.0391 149.457 43.4531 148.344 43.4531H146.422V46.2305H148.309ZM155.34 51.1289C153.5 51.1289 152.363 49.8281 152.363 47.8711C152.363 45.9141 153.512 44.5547 155.246 44.5547C156.582 44.5547 157.988 45.375 157.988 47.7305V48.1523H153.371C153.418 49.5 154.203 50.2383 155.34 50.2383C156.102 50.2383 156.582 49.9102 156.816 49.5117H157.895C157.59 50.4727 156.652 51.1289 155.34 51.1289ZM153.383 47.2969H156.969C156.969 46.2305 156.289 45.4453 155.246 45.4453C154.145 45.4453 153.441 46.3125 153.383 47.2969ZM162.078 44.6367V45.4805H160.742V49.1719C160.742 49.9922 161.141 50.1211 161.574 50.1211C161.762 50.1211 162.02 50.1094 162.172 50.0977V51.0352C162.02 51.0586 161.762 51.082 161.469 51.082C160.625 51.082 159.723 50.5547 159.723 49.4297V45.4805H158.762V44.6367H159.723V43.1133H160.742V44.6367H162.078Z" fill="white"/>
<circle cx="153" cy="24.9998" r="9.63103" transform="rotate(-8.86367 153 24.9998)" fill="#FF9ACA"/>
<circle cx="153.055" cy="25.0416" r="7.53944" transform="rotate(-8.86367 153.055 25.0416)" fill="#FF5AA8"/>
<path d="M152.952 19.7611C152.994 19.6743 153.117 19.6743 153.159 19.7611L154.612 22.8065C154.629 22.8414 154.662 22.8656 154.7 22.8706L158.046 23.3116C158.141 23.3242 158.179 23.4416 158.109 23.5078L155.662 25.831C155.634 25.8576 155.621 25.8966 155.628 25.9347L156.243 29.2527C156.26 29.3472 156.16 29.4198 156.076 29.3739L153.11 27.7643C153.076 27.7458 153.035 27.7458 153.001 27.7643L150.035 29.3739C149.951 29.4198 149.851 29.3472 149.868 29.2527L150.483 25.9347C150.49 25.8966 150.477 25.8576 150.449 25.831L148.002 23.5078C147.932 23.4416 147.97 23.3242 148.066 23.3116L151.411 22.8706C151.449 22.8656 151.483 22.8414 151.499 22.8065L152.952 19.7611Z" fill="#FF9ACA"/>
<path d="M239.018 44.6484C238.924 43.8164 238.162 43.3359 237.143 43.3359C236.018 43.3359 235.279 43.9219 235.279 44.7305C235.279 45.6211 236.275 45.9492 236.92 46.1133L237.764 46.3477C238.678 46.582 240.166 47.1094 240.166 48.6914C240.166 50.0742 239.053 51.1523 237.084 51.1523C235.256 51.1523 234.119 50.2031 234.025 48.7969H235.104C235.197 49.7461 236.076 50.1914 237.084 50.1914C238.256 50.1914 239.135 49.5938 239.135 48.668C239.135 47.8477 238.35 47.5312 237.459 47.2734L236.416 46.9922C235.08 46.6055 234.26 45.9258 234.26 44.7773C234.26 43.3477 235.537 42.3984 237.178 42.3984C238.818 42.3984 240.002 43.3594 240.049 44.6484H239.018ZM244.15 51.1289C242.416 51.1289 241.244 49.8281 241.244 47.8477C241.244 45.8672 242.416 44.5547 244.15 44.5547C245.873 44.5547 247.033 45.8672 247.033 47.8477C247.033 49.8281 245.873 51.1289 244.15 51.1289ZM244.15 50.2383C245.428 50.2383 246.025 49.1133 246.025 47.8477C246.025 46.582 245.428 45.4453 244.15 45.4453C242.85 45.4453 242.252 46.582 242.252 47.8477C242.252 49.1133 242.85 50.2383 244.15 50.2383ZM250.959 51.1289C249.154 51.1289 248.053 49.7578 248.053 47.8477C248.053 45.9141 249.201 44.5547 250.936 44.5547C252.295 44.5547 253.303 45.3516 253.467 46.5586H252.459C252.318 45.9727 251.803 45.4453 250.959 45.4453C249.822 45.4453 249.061 46.3828 249.061 47.8125C249.061 49.2891 249.799 50.2266 250.959 50.2266C251.709 50.2266 252.283 49.8281 252.459 49.125H253.467C253.303 50.2617 252.377 51.1289 250.959 51.1289ZM254.709 51V44.6367H255.717V51H254.709ZM255.213 43.582C254.826 43.582 254.51 43.2891 254.51 42.9141C254.51 42.5391 254.826 42.2461 255.213 42.2461C255.6 42.2461 255.928 42.5391 255.928 42.9141C255.928 43.2891 255.6 43.582 255.213 43.582ZM257.018 49.1953C257.018 47.7305 258.307 47.4023 259.408 47.3203C259.812 47.291 260.844 47.2383 261.131 47.2266V46.7109C261.131 45.9023 260.65 45.4336 259.689 45.4336C258.881 45.4336 258.4 45.8086 258.26 46.2891H257.205C257.334 45.2695 258.33 44.5547 259.736 44.5547C260.568 44.5547 262.127 44.8008 262.127 46.8047V51H261.131V50.1328H261.084C260.873 50.5664 260.287 51.1523 259.186 51.1523C257.979 51.1523 257.018 50.4375 257.018 49.1953ZM258.025 49.2422C258.025 49.9102 258.588 50.25 259.361 50.25C260.498 50.25 261.131 49.4883 261.131 48.6914V48.0469L259.525 48.1641C258.611 48.2227 258.025 48.5508 258.025 49.2422ZM264.752 42.5156V51H263.744V42.5156H264.752Z" fill="white"/>
<path d="M249.938 14C247.038 14.0032 244.258 15.1565 242.207 17.207C240.157 19.2575 239.003 22.0377 239 24.9375V34.125C239 34.5891 239.184 35.0342 239.513 35.3624C239.841 35.6906 240.286 35.875 240.75 35.875H249.938C252.838 35.875 255.62 34.7227 257.671 32.6715C259.723 30.6203 260.875 27.8383 260.875 24.9375C260.875 22.0367 259.723 19.2547 257.671 17.2035C255.62 15.1523 252.838 14 249.938 14ZM245.125 26.6875C244.865 26.6875 244.612 26.6105 244.396 26.4663C244.18 26.3221 244.012 26.1171 243.912 25.8773C243.813 25.6374 243.787 25.3735 243.838 25.1189C243.888 24.8643 244.013 24.6305 244.197 24.4469C244.38 24.2634 244.614 24.1384 244.869 24.0877C245.124 24.0371 245.387 24.0631 245.627 24.1624C245.867 24.2617 246.072 24.43 246.216 24.6458C246.361 24.8617 246.438 25.1154 246.438 25.375C246.438 25.7231 246.299 26.0569 246.053 26.3031C245.807 26.5492 245.473 26.6875 245.125 26.6875ZM249.938 26.6875C249.678 26.6875 249.424 26.6105 249.208 26.4663C248.992 26.3221 248.824 26.1171 248.725 25.8773C248.626 25.6374 248.6 25.3735 248.65 25.1189C248.701 24.8643 248.826 24.6305 249.009 24.4469C249.193 24.2634 249.427 24.1384 249.681 24.0877C249.936 24.0371 250.2 24.0631 250.44 24.1624C250.68 24.2617 250.885 24.43 251.029 24.6458C251.173 24.8617 251.25 25.1154 251.25 25.375C251.25 25.7231 251.112 26.0569 250.866 26.3031C250.619 26.5492 250.286 26.6875 249.938 26.6875ZM254.75 26.6875C254.49 26.6875 254.237 26.6105 254.021 26.4663C253.805 26.3221 253.637 26.1171 253.537 25.8773C253.438 25.6374 253.412 25.3735 253.463 25.1189C253.513 24.8643 253.638 24.6305 253.822 24.4469C254.005 24.2634 254.239 24.1384 254.494 24.0877C254.749 24.0371 255.012 24.0631 255.252 24.1624C255.492 24.2617 255.697 24.43 255.841 24.6458C255.986 24.8617 256.062 25.1154 256.062 25.375C256.062 25.7231 255.924 26.0569 255.678 26.3031C255.432 26.5492 255.098 26.6875 254.75 26.6875Z" fill="#C8C8C8"/>
<path d="M338.146 42.5156H339.412L342.271 49.5H342.377L345.236 42.5156H346.502V51H345.506V44.5898H345.424L342.787 51H341.85L339.213 44.5898H339.143V51H338.146V42.5156ZM348.893 53.3906C348.67 53.3906 348.459 53.3789 348.33 53.3672V52.4648C348.436 52.4766 348.67 52.4883 348.822 52.4883C349.232 52.4883 349.572 52.4531 349.912 51.5273L350.1 51.0469L347.744 44.6367H348.846L350.58 49.6875H350.65L352.385 44.6367H353.486L350.791 51.9141C350.416 52.9102 349.795 53.3906 348.893 53.3906Z" fill="white"/>
<path d="M356.632 35.4405C356.555 35.5735 356.445 35.684 356.312 35.7608C356.179 35.8376 356.028 35.878 355.874 35.878H334.874C334.721 35.8778 334.57 35.8373 334.437 35.7604C334.304 35.6835 334.194 35.5731 334.117 35.4401C334.04 35.3071 334 35.1563 334 35.0028C334 34.8492 334.04 34.6984 334.117 34.5655C335.783 31.6856 338.35 29.6206 341.346 28.6417C339.864 27.7596 338.713 26.4154 338.069 24.8156C337.425 23.2158 337.324 21.4488 337.781 19.786C338.239 18.1233 339.229 16.6566 340.601 15.6114C341.973 14.5661 343.65 14 345.374 14C347.099 14 348.776 14.5661 350.147 15.6114C351.519 16.6566 352.51 18.1233 352.967 19.786C353.424 21.4488 353.323 23.2158 352.679 24.8156C352.036 26.4154 350.884 27.7596 349.402 28.6417C352.398 29.6206 354.965 31.6856 356.631 34.5655C356.708 34.6984 356.749 34.8492 356.749 35.0028C356.749 35.1564 356.709 35.3074 356.632 35.4405Z" fill="#C8C8C8"/>
</svg>
