<svg width="402" height="64" viewBox="0 0 402 64" fill="none" xmlns="http://www.w3.org/2000/svg">
<rect width="402" height="64" fill="#191919"/>
<path d="M41.9766 49V40.5156H43.0312V44.2891H47.5195V40.5156H48.5859V49H47.5195V45.2148H43.0312V49H41.9766ZM52.9219 49.1289C51.1875 49.1289 50.0156 47.8281 50.0156 45.8477C50.0156 43.8672 51.1875 42.5547 52.9219 42.5547C54.6445 42.5547 55.8047 43.8672 55.8047 45.8477C55.8047 47.8281 54.6445 49.1289 52.9219 49.1289ZM52.9219 48.2383C54.1992 48.2383 54.7969 47.1133 54.7969 45.8477C54.7969 44.582 54.1992 43.4453 52.9219 43.4453C51.6211 43.4453 51.0234 44.582 51.0234 45.8477C51.0234 47.1133 51.6211 48.2383 52.9219 48.2383ZM57.1289 49V42.6367H58.1016V43.6328H58.1836C58.4531 42.9531 59.0625 42.5547 59.8945 42.5547C60.7266 42.5547 61.2891 42.9531 61.5938 43.6328H61.6641C61.9922 42.9766 62.6602 42.5547 63.5742 42.5547C64.7109 42.5547 65.5195 43.2461 65.5195 44.7461V49H64.5117V44.7578C64.5117 43.8203 63.9141 43.457 63.2227 43.457C62.332 43.457 61.8281 44.0547 61.8281 44.8633V49H60.8086V44.6523C60.8086 43.9375 60.293 43.457 59.5664 43.457C58.8047 43.457 58.1367 44.1016 58.1367 45.0273V49H57.1289ZM69.8086 49.1289C67.9688 49.1289 66.832 47.8281 66.832 45.8711C66.832 43.9141 67.9805 42.5547 69.7148 42.5547C71.0508 42.5547 72.457 43.375 72.457 45.7305V46.1523H67.8398C67.8867 47.5 68.6719 48.2383 69.8086 48.2383C70.5703 48.2383 71.0508 47.9102 71.2852 47.5117H72.3633C72.0586 48.4727 71.1211 49.1289 69.8086 49.1289ZM67.8516 45.2969H71.4375C71.4375 44.2305 70.7578 43.4453 69.7148 43.4453C68.6133 43.4453 67.9102 44.3125 67.8516 45.2969Z" fill="white"/>
<path d="M67 22.4992V32.9992C67 33.2313 66.9078 33.4538 66.7437 33.6179C66.5796 33.782 66.3571 33.8742 66.125 33.8742H60C59.7679 33.8742 59.5454 33.782 59.3813 33.6179C59.2172 33.4538 59.125 33.2313 59.125 32.9992V27.3117C59.125 27.1957 59.0789 27.0844 58.9969 27.0023C58.9148 26.9203 58.8035 26.8742 58.6875 26.8742H54.3125C54.1965 26.8742 54.0852 26.9203 54.0031 27.0023C53.9211 27.0844 53.875 27.1957 53.875 27.3117V32.9992C53.875 33.2313 53.7828 33.4538 53.6187 33.6179C53.4546 33.782 53.2321 33.8742 53 33.8742H46.875C46.6429 33.8742 46.4204 33.782 46.2563 33.6179C46.0922 33.4538 46 33.2313 46 32.9992V22.4992C46.0002 22.0351 46.1847 21.5902 46.513 21.2622L55.263 12.5122C55.5911 12.1842 56.0361 12 56.5 12C56.9639 12 57.4089 12.1842 57.737 12.5122L66.487 21.2622C66.8153 21.5902 66.9998 22.0351 67 22.4992Z" fill="#C8C8C8"/>
<path d="M145.367 49V40.5156H148.344C150.125 40.5156 150.957 41.5117 150.957 42.7656C150.957 43.8555 150.312 44.3477 149.574 44.5469V44.6289C150.359 44.6758 151.297 45.4023 151.297 46.75C151.297 48.0273 150.453 49 148.449 49H145.367ZM148.438 48.0625C149.762 48.0625 150.277 47.4766 150.277 46.7383C150.277 45.8711 149.586 45.1445 148.496 45.1445H146.422V48.0625H148.438ZM148.309 44.2305C149.223 44.2305 149.949 43.668 149.949 42.7773C149.949 42.0391 149.457 41.4531 148.344 41.4531H146.422V44.2305H148.309ZM155.34 49.1289C153.5 49.1289 152.363 47.8281 152.363 45.8711C152.363 43.9141 153.512 42.5547 155.246 42.5547C156.582 42.5547 157.988 43.375 157.988 45.7305V46.1523H153.371C153.418 47.5 154.203 48.2383 155.34 48.2383C156.102 48.2383 156.582 47.9102 156.816 47.5117H157.895C157.59 48.4727 156.652 49.1289 155.34 49.1289ZM153.383 45.2969H156.969C156.969 44.2305 156.289 43.4453 155.246 43.4453C154.145 43.4453 153.441 44.3125 153.383 45.2969ZM162.078 42.6367V43.4805H160.742V47.1719C160.742 47.9922 161.141 48.1211 161.574 48.1211C161.762 48.1211 162.02 48.1094 162.172 48.0977V49.0352C162.02 49.0586 161.762 49.082 161.469 49.082C160.625 49.082 159.723 48.5547 159.723 47.4297V43.4805H158.762V42.6367H159.723V41.1133H160.742V42.6367H162.078Z" fill="white"/>
<circle cx="153" cy="22.9998" r="9.63103" transform="rotate(-8.86367 153 22.9998)" fill="#FF9ACA"/>
<circle cx="153.055" cy="23.0416" r="7.53944" transform="rotate(-8.86367 153.055 23.0416)" fill="#FF5AA8"/>
<path d="M152.952 17.7616C152.993 17.6748 153.117 17.6748 153.158 17.7616L154.611 20.807C154.628 20.8419 154.661 20.866 154.7 20.8711L158.045 21.3121C158.14 21.3247 158.179 21.4421 158.109 21.5083L155.662 23.8315C155.633 23.8581 155.621 23.8971 155.628 23.9352L156.242 27.2532C156.26 27.3477 156.16 27.4203 156.075 27.3744L153.11 25.7648C153.076 25.7463 153.035 25.7463 153.001 25.7648L150.035 27.3744C149.95 27.4203 149.85 27.3477 149.868 27.2532L150.482 23.9352C150.489 23.8971 150.477 23.8581 150.449 23.8315L148.001 21.5083C147.932 21.4421 147.97 21.3247 148.065 21.3121L151.411 20.8711C151.449 20.866 151.482 20.8419 151.499 20.807L152.952 17.7616Z" fill="#FF9ACA"/>
<path d="M239.018 42.6484C238.924 41.8164 238.162 41.3359 237.143 41.3359C236.018 41.3359 235.279 41.9219 235.279 42.7305C235.279 43.6211 236.275 43.9492 236.92 44.1133L237.764 44.3477C238.678 44.582 240.166 45.1094 240.166 46.6914C240.166 48.0742 239.053 49.1523 237.084 49.1523C235.256 49.1523 234.119 48.2031 234.025 46.7969H235.104C235.197 47.7461 236.076 48.1914 237.084 48.1914C238.256 48.1914 239.135 47.5938 239.135 46.668C239.135 45.8477 238.35 45.5312 237.459 45.2734L236.416 44.9922C235.08 44.6055 234.26 43.9258 234.26 42.7773C234.26 41.3477 235.537 40.3984 237.178 40.3984C238.818 40.3984 240.002 41.3594 240.049 42.6484H239.018ZM244.15 49.1289C242.416 49.1289 241.244 47.8281 241.244 45.8477C241.244 43.8672 242.416 42.5547 244.15 42.5547C245.873 42.5547 247.033 43.8672 247.033 45.8477C247.033 47.8281 245.873 49.1289 244.15 49.1289ZM244.15 48.2383C245.428 48.2383 246.025 47.1133 246.025 45.8477C246.025 44.582 245.428 43.4453 244.15 43.4453C242.85 43.4453 242.252 44.582 242.252 45.8477C242.252 47.1133 242.85 48.2383 244.15 48.2383ZM250.959 49.1289C249.154 49.1289 248.053 47.7578 248.053 45.8477C248.053 43.9141 249.201 42.5547 250.936 42.5547C252.295 42.5547 253.303 43.3516 253.467 44.5586H252.459C252.318 43.9727 251.803 43.4453 250.959 43.4453C249.822 43.4453 249.061 44.3828 249.061 45.8125C249.061 47.2891 249.799 48.2266 250.959 48.2266C251.709 48.2266 252.283 47.8281 252.459 47.125H253.467C253.303 48.2617 252.377 49.1289 250.959 49.1289ZM254.709 49V42.6367H255.717V49H254.709ZM255.213 41.582C254.826 41.582 254.51 41.2891 254.51 40.9141C254.51 40.5391 254.826 40.2461 255.213 40.2461C255.6 40.2461 255.928 40.5391 255.928 40.9141C255.928 41.2891 255.6 41.582 255.213 41.582ZM257.018 47.1953C257.018 45.7305 258.307 45.4023 259.408 45.3203C259.812 45.291 260.844 45.2383 261.131 45.2266V44.7109C261.131 43.9023 260.65 43.4336 259.689 43.4336C258.881 43.4336 258.4 43.8086 258.26 44.2891H257.205C257.334 43.2695 258.33 42.5547 259.736 42.5547C260.568 42.5547 262.127 42.8008 262.127 44.8047V49H261.131V48.1328H261.084C260.873 48.5664 260.287 49.1523 259.186 49.1523C257.979 49.1523 257.018 48.4375 257.018 47.1953ZM258.025 47.2422C258.025 47.9102 258.588 48.25 259.361 48.25C260.498 48.25 261.131 47.4883 261.131 46.6914V46.0469L259.525 46.1641C258.611 46.2227 258.025 46.5508 258.025 47.2422ZM264.752 40.5156V49H263.744V40.5156H264.752Z" fill="white"/>
<path d="M249.938 12C247.038 12.0032 244.258 13.1565 242.207 15.207C240.157 17.2575 239.003 20.0377 239 22.9375V32.125C239 32.5891 239.184 33.0342 239.513 33.3624C239.841 33.6906 240.286 33.875 240.75 33.875H249.938C252.838 33.875 255.62 32.7227 257.671 30.6715C259.723 28.6203 260.875 25.8383 260.875 22.9375C260.875 20.0367 259.723 17.2547 257.671 15.2035C255.62 13.1523 252.838 12 249.938 12ZM245.125 24.6875C244.865 24.6875 244.612 24.6105 244.396 24.4663C244.18 24.3221 244.012 24.1171 243.912 23.8773C243.813 23.6374 243.787 23.3735 243.838 23.1189C243.888 22.8643 244.013 22.6305 244.197 22.4469C244.38 22.2634 244.614 22.1384 244.869 22.0877C245.124 22.0371 245.387 22.0631 245.627 22.1624C245.867 22.2617 246.072 22.43 246.216 22.6458C246.361 22.8617 246.438 23.1154 246.438 23.375C246.438 23.7231 246.299 24.0569 246.053 24.3031C245.807 24.5492 245.473 24.6875 245.125 24.6875ZM249.938 24.6875C249.678 24.6875 249.424 24.6105 249.208 24.4663C248.992 24.3221 248.824 24.1171 248.725 23.8773C248.626 23.6374 248.6 23.3735 248.65 23.1189C248.701 22.8643 248.826 22.6305 249.009 22.4469C249.193 22.2634 249.427 22.1384 249.681 22.0877C249.936 22.0371 250.2 22.0631 250.44 22.1624C250.68 22.2617 250.885 22.43 251.029 22.6458C251.173 22.8617 251.25 23.1154 251.25 23.375C251.25 23.7231 251.112 24.0569 250.866 24.3031C250.619 24.5492 250.286 24.6875 249.938 24.6875ZM254.75 24.6875C254.49 24.6875 254.237 24.6105 254.021 24.4663C253.805 24.3221 253.637 24.1171 253.537 23.8773C253.438 23.6374 253.412 23.3735 253.463 23.1189C253.513 22.8643 253.638 22.6305 253.822 22.4469C254.005 22.2634 254.239 22.1384 254.494 22.0877C254.749 22.0371 255.012 22.0631 255.252 22.1624C255.492 22.2617 255.697 22.43 255.841 22.6458C255.986 22.8617 256.062 23.1154 256.062 23.375C256.062 23.7231 255.924 24.0569 255.678 24.3031C255.432 24.5492 255.098 24.6875 254.75 24.6875Z" fill="#C8C8C8"/>
<path d="M338.146 40.5156H339.412L342.271 47.5H342.377L345.236 40.5156H346.502V49H345.506V42.5898H345.424L342.787 49H341.85L339.213 42.5898H339.143V49H338.146V40.5156ZM348.893 51.3906C348.67 51.3906 348.459 51.3789 348.33 51.3672V50.4648C348.436 50.4766 348.67 50.4883 348.822 50.4883C349.232 50.4883 349.572 50.4531 349.912 49.5273L350.1 49.0469L347.744 42.6367H348.846L350.58 47.6875H350.65L352.385 42.6367H353.486L350.791 49.9141C350.416 50.9102 349.795 51.3906 348.893 51.3906Z" fill="white"/>
<path d="M356.632 33.4405C356.555 33.5735 356.445 33.684 356.312 33.7608C356.179 33.8376 356.028 33.878 355.874 33.878H334.874C334.721 33.8778 334.57 33.8373 334.437 33.7604C334.304 33.6835 334.194 33.5731 334.117 33.4401C334.04 33.3071 334 33.1563 334 33.0028C334 32.8492 334.04 32.6984 334.117 32.5655C335.783 29.6856 338.35 27.6206 341.346 26.6417C339.864 25.7596 338.713 24.4154 338.069 22.8156C337.425 21.2158 337.324 19.4488 337.781 17.786C338.239 16.1233 339.229 14.6566 340.601 13.6114C341.973 12.5661 343.65 12 345.374 12C347.099 12 348.776 12.5661 350.147 13.6114C351.519 14.6566 352.51 16.1233 352.967 17.786C353.424 19.4488 353.323 21.2158 352.679 22.8156C352.036 24.4154 350.884 25.7596 349.402 26.6417C352.398 27.6206 354.965 29.6856 356.631 32.5655C356.708 32.6984 356.749 32.8492 356.749 33.0028C356.749 33.1564 356.709 33.3074 356.632 33.4405Z" fill="#C8C8C8"/>
</svg>
