<svg width="386" height="191" viewBox="0 0 386 191" fill="none" xmlns="http://www.w3.org/2000/svg">
<g filter="url(#filter0_d_121_1997)">
<rect x="12" y="6" width="362" height="167" rx="12" fill="#191919"/>
<path d="M348 31L334 45" stroke="#F9F9F9" stroke-width="3" stroke-linecap="round" stroke-linejoin="round"/>
<path d="M334 31L348 45" stroke="#F9F9F9" stroke-width="3" stroke-linecap="round" stroke-linejoin="round"/>
<path d="M135.375 69.6875L138.703 79.1719H138.828L142.172 69.6875H143.656L139.516 81H138.031L133.891 69.6875H135.375ZM143.797 78.5938C143.797 76.6406 145.516 76.2031 146.984 76.0938C147.523 76.0547 148.898 75.9844 149.281 75.9688V75.2812C149.281 74.2031 148.641 73.5781 147.359 73.5781C146.281 73.5781 145.641 74.0781 145.453 74.7188H144.047C144.219 73.3594 145.547 72.4062 147.422 72.4062C148.531 72.4062 150.609 72.7344 150.609 75.4062V81H149.281V79.8438H149.219C148.938 80.4219 148.156 81.2031 146.688 81.2031C145.078 81.2031 143.797 80.25 143.797 78.5938ZM145.141 78.6562C145.141 79.5469 145.891 80 146.922 80C148.438 80 149.281 78.9844 149.281 77.9219V77.0625L147.141 77.2188C145.922 77.2969 145.141 77.7344 145.141 78.6562ZM154.109 75.9062V81H152.766V72.5156H154.062V73.8438H154.172C154.578 72.9844 155.359 72.4062 156.656 72.4062C158.375 72.4062 159.516 73.4531 159.516 75.6094V81H158.172V75.7031C158.172 74.3906 157.453 73.6094 156.25 73.6094C155.016 73.6094 154.109 74.4375 154.109 75.9062ZM161.672 81V72.5156H163.016V81H161.672ZM162.344 71.1094C161.828 71.1094 161.406 70.7188 161.406 70.2188C161.406 69.7188 161.828 69.3281 162.344 69.3281C162.859 69.3281 163.297 69.7188 163.297 70.2188C163.297 70.7188 162.859 71.1094 162.344 71.1094ZM169.875 74.7188C169.688 74.0156 169.156 73.5469 168.156 73.5469C167.109 73.5469 166.359 74.1094 166.359 74.8281C166.359 75.3906 166.812 75.7812 167.812 76.0156L169.078 76.3281C170.594 76.6875 171.344 77.4375 171.344 78.625C171.344 80.0938 170.141 81.1719 168.016 81.1719C166.109 81.1719 164.969 80.3281 164.75 78.7812H166.156C166.312 79.6094 166.922 80 167.984 80C169.188 80 169.953 79.5 169.953 78.7031C169.953 78.1094 169.531 77.7031 168.562 77.4844L167.281 77.1875C165.797 76.8438 165.016 76.0312 165.016 74.9062C165.016 73.4531 166.281 72.4062 168.156 72.4062C169.906 72.4062 171.016 73.3438 171.188 74.7188H169.875ZM174.438 75.9062V81H173.094V69.6875H174.438V73.8438H174.547C174.938 72.9688 175.703 72.4062 177.047 72.4062C178.781 72.4062 179.938 73.4375 179.938 75.6094V81H178.594V75.7031C178.594 74.375 177.859 73.6094 176.641 73.6094C175.375 73.6094 174.438 74.4375 174.438 75.9062ZM182.094 81V72.5156H183.438V81H182.094ZM182.766 71.1094C182.25 71.1094 181.828 70.7188 181.828 70.2188C181.828 69.7188 182.25 69.3281 182.766 69.3281C183.281 69.3281 183.719 69.7188 183.719 70.2188C183.719 70.7188 183.281 71.1094 182.766 71.1094ZM186.922 75.9062V81H185.578V72.5156H186.875V73.8438H186.984C187.391 72.9844 188.172 72.4062 189.469 72.4062C191.188 72.4062 192.328 73.4531 192.328 75.6094V81H190.984V75.7031C190.984 74.3906 190.266 73.6094 189.062 73.6094C187.828 73.6094 186.922 74.4375 186.922 75.9062ZM197.922 84.3594C195.875 84.3594 194.484 83.4688 194.328 81.8906H195.734C195.922 82.75 196.719 83.1875 197.922 83.1875C199.375 83.1875 200.266 82.5625 200.266 81.1562V79.4375H200.156C199.875 79.9062 199.328 80.875 197.688 80.875C195.625 80.875 194.078 79.3125 194.078 76.6406C194.078 74.0312 195.578 72.4062 197.703 72.4062C199.344 72.4062 199.875 73.4062 200.188 73.8594H200.297V72.5156H201.609V81.2344C201.609 83.4219 199.984 84.3594 197.922 84.3594ZM197.875 79.6719C199.422 79.6719 200.297 78.5625 200.297 76.6875C200.297 74.875 199.453 73.6094 197.875 73.6094C196.25 73.6094 195.438 74.9844 195.438 76.6875C195.438 78.4531 196.266 79.6719 197.875 79.6719ZM215.656 73.25C215.328 71.6875 213.984 70.8438 212.5 70.8438C210.453 70.8438 208.859 72.4219 208.859 75.3438C208.859 78.2656 210.453 79.8438 212.5 79.8438C213.984 79.8438 215.312 79 215.656 77.4531H217.062C216.656 79.7656 214.797 81.1562 212.5 81.1562C209.594 81.1562 207.5 78.9219 207.5 75.3438C207.5 71.7656 209.594 69.5312 212.5 69.5312C214.781 69.5312 216.641 70.9062 217.062 73.25H215.656ZM218.453 78.5938C218.453 76.6406 220.172 76.2031 221.641 76.0938C222.18 76.0547 223.555 75.9844 223.938 75.9688V75.2812C223.938 74.2031 223.297 73.5781 222.016 73.5781C220.938 73.5781 220.297 74.0781 220.109 74.7188H218.703C218.875 73.3594 220.203 72.4062 222.078 72.4062C223.188 72.4062 225.266 72.7344 225.266 75.4062V81H223.938V79.8438H223.875C223.594 80.4219 222.812 81.2031 221.344 81.2031C219.734 81.2031 218.453 80.25 218.453 78.5938ZM219.797 78.6562C219.797 79.5469 220.547 80 221.578 80C223.094 80 223.938 78.9844 223.938 77.9219V77.0625L221.797 77.2188C220.578 77.2969 219.797 77.7344 219.797 78.6562ZM231.125 72.5156V73.6406H229.344V78.5625C229.344 79.6562 229.875 79.8281 230.453 79.8281C230.703 79.8281 231.047 79.8125 231.25 79.7969V81.0469C231.047 81.0781 230.703 81.1094 230.312 81.1094C229.188 81.1094 227.984 80.4062 227.984 78.9062V73.6406H226.703V72.5156H227.984V70.4844H229.344V72.5156H231.125ZM237.422 74.7188C237.234 74.0156 236.703 73.5469 235.703 73.5469C234.656 73.5469 233.906 74.1094 233.906 74.8281C233.906 75.3906 234.359 75.7812 235.359 76.0156L236.625 76.3281C238.141 76.6875 238.891 77.4375 238.891 78.625C238.891 80.0938 237.688 81.1719 235.562 81.1719C233.656 81.1719 232.516 80.3281 232.297 78.7812H233.703C233.859 79.6094 234.469 80 235.531 80C236.734 80 237.5 79.5 237.5 78.7031C237.5 78.1094 237.078 77.7031 236.109 77.4844L234.828 77.1875C233.344 76.8438 232.562 76.0312 232.562 74.9062C232.562 73.4531 233.828 72.4062 235.703 72.4062C237.453 72.4062 238.562 73.3438 238.734 74.7188H237.422ZM252.031 68.375V82.2656H250.844V68.375H252.031ZM249.234 68.6719V81.5625H248.062V74.8125H246.281C246.148 77.5156 245 79.2031 243.281 79.2031C241.469 79.2031 240.297 77.3281 240.297 74.375C240.297 71.4219 241.469 69.5469 243.281 69.5469C244.969 69.5469 246.109 71.1797 246.266 73.7969H248.062V68.6719H249.234ZM243.281 70.7031C242.156 70.7031 241.438 72.1094 241.453 74.375C241.438 76.625 242.156 78.0469 243.281 78.0312C244.406 78.0469 245.125 76.625 245.125 74.375C245.125 72.1094 244.406 70.7031 243.281 70.7031ZM171.766 98.625C174.859 98.625 176.672 99.4688 176.672 101.016C176.672 102.594 174.859 103.438 171.766 103.453C168.672 103.438 166.844 102.594 166.844 101.016C166.844 99.4688 168.672 98.625 171.766 98.625ZM171.766 99.5469C169.453 99.5469 168.109 100.109 168.125 101.016C168.109 101.984 169.453 102.516 171.766 102.516C174.062 102.516 175.422 101.984 175.422 101.016C175.422 100.109 174.062 99.5469 171.766 99.5469ZM178.094 104.391V105.391H165.438V104.391H178.094ZM176.469 106.594V109.703H168.219V111.141H176.891V112.109H167V108.797H175.266V107.531H166.969V106.594H176.469ZM184.969 99.7031V103.094H187.984V99.7031H189.125V108.797H183.797V99.7031H184.969ZM184.969 107.781H187.984V104.094H184.969V107.781ZM195.188 98.375V112.266H194V104.906H192.062V111.562H190.891V98.6719H192.062V103.891H194V98.375H195.188ZM204.578 99.4062V100.406H199.156V102.156H204.188V103.156H199.156V104.984C202.117 104.984 203.758 104.93 205.719 104.609L205.844 105.609C203.812 105.938 202.109 106 199.047 106H197.922V99.4062H204.578ZM208.578 98.3906V107H207.359V98.3906H208.578ZM203.969 107.203C206.859 107.188 208.641 108.109 208.641 109.703C208.641 111.328 206.859 112.234 203.969 112.234C201.016 112.234 199.266 111.328 199.266 109.703C199.266 108.109 201.016 107.188 203.969 107.203ZM203.969 108.172C201.781 108.172 200.484 108.75 200.484 109.703C200.484 110.688 201.781 111.266 203.969 111.266C206.094 111.266 207.438 110.688 207.438 109.703C207.438 108.75 206.094 108.172 203.969 108.172ZM221.688 98.375V104.109H224.016V105.125H221.688V112.266H220.469V98.375H221.688ZM219.125 100.609V101.625H210.859V100.609H214.438V98.5469H215.656V100.609H219.125ZM215.062 102.781C217.031 102.781 218.453 104.094 218.469 105.969C218.453 107.844 217.031 109.156 215.062 109.156C213.078 109.156 211.641 107.844 211.656 105.969C211.641 104.094 213.078 102.781 215.062 102.781ZM215.062 103.812C213.766 103.812 212.812 104.719 212.828 105.969C212.812 107.234 213.766 108.125 215.062 108.109C216.344 108.125 217.281 107.234 217.297 105.969C217.281 104.719 216.344 103.812 215.062 103.812ZM229.547 107.703C229.547 108.945 230.203 110.258 231.531 111C232.859 110.188 233.547 108.773 233.547 107.703V106.75H234.75V107.703C234.75 109.125 235.781 110.578 237.594 111.172L236.953 112.109C235.578 111.602 234.609 110.633 234.141 109.469C233.703 110.602 232.852 111.672 231.547 112.219C230.211 111.711 229.359 110.688 228.938 109.516C228.438 110.641 227.484 111.602 226.156 112.109L225.547 111.172C227.312 110.547 228.359 109.047 228.375 107.703V106.75H229.547V107.703ZM228.594 99.1406C229.758 99.1406 230.758 99.5859 231.406 100.328H235.047V98.375H236.281V106.312H235.047V104.469H231.438C230.789 105.234 229.781 105.688 228.594 105.688C226.516 105.688 225 104.344 225 102.422C225 100.5 226.516 99.1406 228.594 99.1406ZM228.594 100.188C227.203 100.188 226.172 101.125 226.188 102.422C226.172 103.734 227.203 104.641 228.594 104.656C229.953 104.641 230.984 103.734 230.984 102.422C230.984 101.125 229.953 100.188 228.594 100.188ZM231.984 101.328C232.102 101.664 232.172 102.031 232.172 102.422C232.172 102.789 232.109 103.133 232.016 103.453H235.047V101.328H231.984ZM241.422 106.719V108.344H248.359V106.719H249.594V112.078H240.203V106.719H241.422ZM241.422 111.094H248.359V109.312H241.422V111.094ZM251.25 104.719V105.734H238.594V104.719H251.25ZM245.562 99.1875C245.562 100.906 248.094 102.438 250.531 102.75L250.078 103.734C247.922 103.414 245.812 102.312 244.938 100.75C244.047 102.32 241.922 103.414 239.781 103.734L239.312 102.75C241.781 102.422 244.297 100.953 244.297 99.1875V98.5312H245.562V99.1875ZM263.875 98.375V112.266H262.656V98.375H263.875ZM254.531 99.75V107.625C256.648 107.617 258.844 107.445 261.172 106.953L261.344 108C258.875 108.516 256.672 108.688 254.453 108.688H253.328V99.75H254.531ZM277 98.375V103.875H279.328V104.906H277V112.297H275.781V98.375H277ZM273.344 99.7344V100.75H268.078V107.781C270.594 107.781 272.375 107.664 274.438 107.281L274.594 108.344C272.422 108.734 270.594 108.812 267.953 108.812H266.859V99.7344H273.344Z" fill="#F9F9F9"/>
<path d="M108.429 111L108.424 109.525L112.418 105.674C113.562 104.53 114.158 103.856 114.164 102.912C114.158 101.851 113.324 101.188 112.214 101.188C111.053 101.188 110.302 101.917 110.308 103.066H108.374C108.363 100.923 109.971 99.5304 112.241 99.5304C114.545 99.5304 116.103 100.912 116.109 102.807C116.103 104.088 115.49 105.122 113.263 107.221L111.258 109.215V109.298H116.28V111H108.429ZM122.075 111.155C119.821 111.155 118.153 109.807 118.092 107.928H120.07C120.142 108.851 121.009 109.508 122.075 109.508C123.346 109.508 124.252 108.597 124.252 107.337C124.252 106.05 123.318 105.133 122.015 105.122C121.136 105.116 120.495 105.425 120.136 106.088H118.258L118.932 99.6851H125.617V101.387H120.611L120.269 104.392H120.368C120.81 103.895 121.633 103.536 122.567 103.536C124.666 103.536 126.224 105.105 126.224 107.282C126.224 109.541 124.523 111.155 122.075 111.155ZM132.11 111.215C129.381 111.21 127.757 109.061 127.762 105.354C127.762 101.657 129.398 99.5304 132.11 99.5304C134.818 99.5304 136.459 101.663 136.459 105.354C136.453 109.072 134.834 111.215 132.11 111.215ZM129.812 105.354C129.812 108.072 130.691 109.492 132.11 109.492C133.525 109.492 134.403 108.072 134.403 105.354C134.398 102.652 133.519 101.227 132.11 101.227C130.696 101.227 129.818 102.652 129.812 105.354ZM149.175 99.5193V100.801C149.164 102.514 149.186 104.486 148.55 107.475L146.849 107.304C147.097 106.166 147.241 105.155 147.329 104.249L138.998 104.724L138.744 103.238L147.429 102.923C147.462 102.188 147.467 101.53 147.467 100.923H139.186V99.5193H149.175ZM137.688 110.652V109.221H142.44V105.74H144.164V109.221H150.556V110.652H137.688ZM163.273 98.2818V108.486H161.533V98.2818H163.273ZM151.771 102.735C151.765 100.68 153.428 99.2099 155.577 99.2099C157.726 99.2099 159.378 100.68 159.378 102.735C159.378 104.823 157.726 106.282 155.577 106.276C153.428 106.282 151.765 104.823 151.771 102.735ZM153.467 102.735C153.461 103.989 154.367 104.762 155.577 104.762C156.754 104.762 157.671 103.989 157.671 102.735C157.671 101.514 156.754 100.724 155.577 100.724C154.367 100.724 153.461 101.514 153.467 102.735ZM153.931 112.116V107.448H155.682V110.707H163.671V112.116H153.931Z" fill="#F70778"/>
</g>
<defs>
<filter id="filter0_d_121_1997" x="0" y="0" width="386" height="191" filterUnits="userSpaceOnUse" color-interpolation-filters="sRGB">
<feFlood flood-opacity="0" result="BackgroundImageFix"/>
<feColorMatrix in="SourceAlpha" type="matrix" values="0 0 0 0 0 0 0 0 0 0 0 0 0 0 0 0 0 0 127 0" result="hardAlpha"/>
<feOffset dy="6"/>
<feGaussianBlur stdDeviation="6"/>
<feComposite in2="hardAlpha" operator="out"/>
<feColorMatrix type="matrix" values="0 0 0 0 0 0 0 0 0 0 0 0 0 0 0 0 0 0 0.25 0"/>
<feBlend mode="normal" in2="BackgroundImageFix" result="effect1_dropShadow_121_1997"/>
<feBlend mode="normal" in="SourceGraphic" in2="effect1_dropShadow_121_1997" result="shape"/>
</filter>
</defs>
</svg>
