<svg width="10" height="10" viewBox="0 0 10 10" fill="none" xmlns="http://www.w3.org/2000/svg">
<g clip-path="url(#clip0_8_605)">
<path d="M5.00001 9.16634C7.3012 9.16634 9.16668 7.30086 9.16668 4.99967C9.16668 2.69849 7.3012 0.833008 5.00001 0.833008C2.69882 0.833008 0.833344 2.69849 0.833344 4.99967C0.833344 7.30086 2.69882 9.16634 5.00001 9.16634Z" stroke="#D9D9D9" stroke-opacity="0.6" stroke-linecap="round" stroke-linejoin="round"/>
<path d="M3.78751 3.75024C3.88547 3.47177 4.07882 3.23695 4.33332 3.08738C4.58782 2.9378 4.88705 2.88313 5.178 2.93303C5.46895 2.98294 5.73285 3.13421 5.92295 3.36004C6.11306 3.58588 6.21711 3.8717 6.21667 4.1669C6.21667 5.00024 4.96667 5.4169 4.96667 5.4169" stroke="#D9D9D9" stroke-opacity="0.6" stroke-linecap="round" stroke-linejoin="round"/>
<path d="M5 7.08301H5.00417" stroke="#D9D9D9" stroke-opacity="0.6" stroke-linecap="round" stroke-linejoin="round"/>
</g>
<defs>
<clipPath id="clip0_8_605">
<rect width="10" height="10" fill="white"/>
</clipPath>
</defs>
</svg>
