<svg width="400" height="55" viewBox="0 0 400 55" fill="none" xmlns="http://www.w3.org/2000/svg">
<rect width="400" height="55" fill="#191919"/>
<path d="M58.9448 24.063C59.5867 24.063 60.1954 24.182 60.7709 24.4199C61.3464 24.6523 61.8556 25.0176 62.2983 25.5156C62.7465 26.0081 63.0979 26.6418 63.3525 27.4165C63.607 28.1857 63.7343 29.1126 63.7343 30.1973V30.2139C63.7343 31.5586 63.5406 32.7096 63.1532 33.667C62.7659 34.6243 62.2097 35.3604 61.4848 35.875C60.7654 36.3841 59.9049 36.6387 58.9032 36.6387C58.1672 36.6387 57.5032 36.5059 56.9111 36.2402C56.3245 35.9691 55.8375 35.5983 55.4501 35.1279C55.0683 34.652 54.811 34.1097 54.6782 33.501L54.6615 33.4097H56.7616L56.7948 33.4927C56.9 33.7694 57.0494 34.0129 57.2431 34.2231C57.4423 34.4334 57.6803 34.5967 57.957 34.7129C58.2392 34.8236 58.5546 34.8789 58.9032 34.8789C59.5341 34.8789 60.0488 34.6935 60.4472 34.3228C60.8512 33.9465 61.1528 33.4456 61.352 32.8203C61.5567 32.1895 61.6729 31.4922 61.7006 30.7285C61.7061 30.6455 61.7089 30.5653 61.7089 30.4878C61.7089 30.4048 61.7089 30.3245 61.7089 30.2471L61.3354 28.2466C61.3354 27.7928 61.2302 27.3805 61.0199 27.0098C60.8097 26.639 60.5247 26.3457 60.165 26.1299C59.8108 25.9141 59.4096 25.8062 58.9614 25.8062C58.5297 25.8062 58.134 25.9113 57.7743 26.1216C57.4146 26.3319 57.1269 26.6196 56.9111 26.9849C56.6952 27.3446 56.5873 27.7485 56.5873 28.1968V28.2134C56.5873 28.6782 56.6897 29.0905 56.8945 29.4502C57.0992 29.8044 57.3787 30.0838 57.7328 30.2886C58.087 30.4933 58.491 30.5957 58.9448 30.5957C59.3985 30.5957 59.8053 30.4961 60.165 30.2969C60.5247 30.0977 60.8097 29.821 61.0199 29.4668C61.2302 29.1126 61.3354 28.7114 61.3354 28.2632V28.2466H61.8334V30.4546H61.5429C61.399 30.77 61.186 31.0633 60.9037 31.3345C60.6215 31.6056 60.2729 31.8242 59.8578 31.9902C59.4483 32.1562 58.9669 32.2393 58.4135 32.2393C57.6498 32.2393 56.9747 32.0677 56.3881 31.7246C55.8015 31.3815 55.3394 30.9111 55.0019 30.3135C54.6698 29.7158 54.5038 29.0407 54.5038 28.2881V28.2715C54.5038 27.458 54.692 26.7358 55.0683 26.105C55.4501 25.4686 55.9758 24.9705 56.6454 24.6108C57.3206 24.2456 58.087 24.063 58.9448 24.063ZM67.5029 34.7295C67.1266 34.7295 66.8111 34.605 66.5566 34.356C66.3075 34.1014 66.183 33.7915 66.183 33.4263C66.183 33.0555 66.3075 32.7456 66.5566 32.4966C66.8111 32.242 67.1266 32.1147 67.5029 32.1147C67.8847 32.1147 68.2001 32.242 68.4491 32.4966C68.6982 32.7456 68.8227 33.0555 68.8227 33.4263C68.8227 33.7915 68.6982 34.1014 68.4491 34.356C68.2001 34.605 67.8847 34.7295 67.5029 34.7295ZM67.5029 28.5703C67.1266 28.5703 66.8111 28.4458 66.5566 28.1968C66.3075 27.9422 66.183 27.6323 66.183 27.2671C66.183 26.8963 66.3075 26.5864 66.5566 26.3374C66.8111 26.0828 67.1266 25.9556 67.5029 25.9556C67.8847 25.9556 68.2001 26.0828 68.4491 26.3374C68.6982 26.5864 68.8227 26.8963 68.8227 27.2671C68.8227 27.6323 68.6982 27.9422 68.4491 28.1968C68.2001 28.4458 67.8847 28.5703 67.5029 28.5703ZM77.082 36.3398V34.0405H71.2216V32.2891C71.537 31.7523 71.8525 31.2127 72.1679 30.6704C72.4889 30.1281 72.8126 29.5885 73.1391 29.0518C73.4711 28.5094 73.8004 27.9754 74.1269 27.4497C74.4589 26.9185 74.7882 26.3955 75.1147 25.8809C75.4467 25.3607 75.7787 24.8543 76.1108 24.3618H79.124V32.2725H80.7426V34.0405H79.124V36.3398H77.082ZM73.2138 32.3223H77.1152V26.0718H76.9907C76.7472 26.4481 76.4954 26.8354 76.2353 27.2339C75.9807 27.6323 75.7234 28.0391 75.4633 28.4541C75.2032 28.8691 74.9459 29.2869 74.6913 29.7075C74.4368 30.1226 74.185 30.5404 73.936 30.9609C73.6869 31.376 73.4462 31.7882 73.2138 32.1978V32.3223ZM85.6982 36.3398V26.4702H85.5488L82.5688 28.5703V26.5615L85.6982 24.3618H87.8315V36.3398H85.6982Z" fill="white"/>
<rect opacity="0.35" x="340.497" y="24.5" width="24" height="12" rx="3.8" stroke="white"/>
<path opacity="0.4" d="M365.997 28.7812V32.8567C366.802 32.5116 367.325 31.7086 367.325 30.819C367.325 29.9294 366.802 29.1264 365.997 28.7812" fill="white"/>
<rect x="341.997" y="26" width="21" height="9" rx="2.5" fill="white"/>
<path fill-rule="evenodd" clip-rule="evenodd" d="M324.268 27.104C326.755 27.1041 329.147 28.0262 330.949 29.6796C331.085 29.8073 331.302 29.8057 331.436 29.676L332.733 28.4126C332.801 28.3468 332.839 28.2577 332.838 28.165C332.837 28.0724 332.799 27.9837 332.73 27.9187C327.999 23.544 320.535 23.544 315.804 27.9187C315.736 27.9837 315.697 28.0723 315.696 28.165C315.696 28.2577 315.733 28.3468 315.801 28.4126L317.099 29.676C317.232 29.8059 317.45 29.8075 317.585 29.6796C319.388 28.0261 321.78 27.104 324.268 27.104ZM324.264 31.3243C325.622 31.3242 326.93 31.8359 327.937 32.76C328.073 32.8912 328.287 32.8883 328.42 32.7536L329.707 31.4343C329.775 31.3651 329.812 31.2712 329.811 31.1737C329.81 31.0761 329.771 30.9831 329.702 30.9153C326.638 28.0244 321.893 28.0244 318.829 30.9153C318.76 30.9831 318.721 31.0762 318.72 31.1738C318.719 31.2714 318.757 31.3652 318.825 31.4343L320.111 32.7536C320.244 32.8883 320.458 32.8912 320.595 32.76C321.6 31.8365 322.908 31.3248 324.264 31.3243ZM326.789 34.1178C326.791 34.2232 326.754 34.3247 326.686 34.3985L324.51 36.8533C324.446 36.9254 324.359 36.966 324.268 36.966C324.177 36.966 324.09 36.9254 324.026 36.8533L321.849 34.3985C321.782 34.3247 321.745 34.2231 321.747 34.1177C321.749 34.0124 321.79 33.9126 321.86 33.842C323.25 32.5281 325.286 32.5281 326.676 33.842C326.746 33.9127 326.787 34.0125 326.789 34.1178Z" fill="white"/>
<path fill-rule="evenodd" clip-rule="evenodd" d="M308.197 25.6819C308.197 25.0488 307.72 24.5356 307.13 24.5356H306.064C305.475 24.5356 304.997 25.0488 304.997 25.6819V35.6158C304.997 36.2489 305.475 36.7621 306.064 36.7621H307.13C307.72 36.7621 308.197 36.2489 308.197 35.6158V25.6819ZM300.763 26.9809H301.83C302.419 26.9809 302.896 27.5064 302.896 28.1547V35.5883C302.896 36.2366 302.419 36.7621 301.83 36.7621H300.763C300.174 36.7621 299.696 36.2366 299.696 35.5883V28.1547C299.696 27.5064 300.174 26.9809 300.763 26.9809ZM296.431 29.63H295.365C294.775 29.63 294.298 30.1622 294.298 30.8187V35.5734C294.298 36.2299 294.775 36.762 295.365 36.762H296.431C297.02 36.762 297.498 36.2299 297.498 35.5734V30.8187C297.498 30.1622 297.02 29.63 296.431 29.63ZM291.13 32.0753H290.064C289.475 32.0753 288.997 32.5999 288.997 33.247V35.5904C288.997 36.2375 289.475 36.7621 290.064 36.7621H291.13C291.72 36.7621 292.197 36.2375 292.197 35.5904V33.247C292.197 32.5999 291.72 32.0753 291.13 32.0753Z" fill="white"/>
</svg>
