<svg width="402" height="874" viewBox="0 0 402 874" fill="none" xmlns="http://www.w3.org/2000/svg">
<g clip-path="url(#clip0_102_6037)">
<rect width="402" height="874" fill="#191919"/>
<rect y="165" width="402" height="457" fill="#191919"/>
<rect width="402" height="21" transform="translate(0 853)" fill="#191919"/>
<rect width="139" height="5" rx="2.5" transform="matrix(-1 0 0 1 271 861)" fill="#F9F9F9"/>
<g filter="url(#filter0_d_102_6037)">
<path d="M0 55H402V122H0V55Z" fill="#191919"/>
</g>
<path d="M178.219 85.9023C178.102 84.7891 177.203 84.125 175.777 84.125C174.293 84.125 173.473 84.8086 173.453 85.7461C173.434 86.7617 174.508 87.2305 175.719 87.5039L176.988 87.8164C179.41 88.3633 181.227 89.5938 181.227 91.957C181.227 94.5547 179.195 96.1953 175.758 96.1953C172.34 96.1953 170.152 94.6133 170.074 91.5859H172.926C173.023 93.0117 174.156 93.7344 175.719 93.7344C177.262 93.7344 178.258 93.0117 178.258 91.957C178.258 91 177.379 90.5508 175.836 90.1602L174.293 89.7891C171.91 89.2031 170.445 88.0117 170.445 85.9414C170.445 83.3633 172.711 81.6641 175.797 81.6641C178.922 81.6641 180.992 83.4023 181.031 85.9023H178.219ZM182.594 84.2812V81.8594H194.176V84.2812H189.84V96H186.93V84.2812H182.594ZM208.316 88.9297C208.316 93.5391 205.445 96.1953 201.715 96.1953C197.945 96.1953 195.094 93.5195 195.094 88.9297C195.094 84.3203 197.945 81.6641 201.715 81.6641C205.445 81.6641 208.316 84.3203 208.316 88.9297ZM205.328 88.9297C205.328 85.9023 203.902 84.2617 201.715 84.2617C199.527 84.2617 198.082 85.9023 198.082 88.9297C198.082 91.957 199.527 93.5977 201.715 93.5977C203.902 93.5977 205.328 91.957 205.328 88.9297ZM210.426 96V81.8594H215.973C219.195 81.8594 221.031 83.6758 221.031 86.4688C221.031 88.4023 220.143 89.8086 218.531 90.4922L221.539 96H218.297L215.602 90.9805H213.355V96H210.426ZM213.355 88.5977H215.426C217.164 88.5977 218.004 87.875 218.004 86.4688C218.004 85.043 217.164 84.2617 215.426 84.2617H213.355V88.5977ZM223.062 96V81.8594H232.555V84.2812H225.992V87.7188H232.066V90.1406H225.992V93.5781H232.574V96H223.062Z" fill="#FF0078"/>
<path d="M42.4714 88.5H26.2314" stroke="#C8C8C8" stroke-width="3" stroke-linecap="round" stroke-linejoin="round"/>
<path d="M34.3514 96.9582L26.2314 88.4998L34.3514 80.0415" stroke="#C8C8C8" stroke-width="3" stroke-linecap="round" stroke-linejoin="round"/>
<circle cx="309" cy="87.9995" r="10.5066" transform="rotate(-8.86367 309 87.9995)" fill="#FF9ACA"/>
<circle cx="309.061" cy="88.0444" r="8.22485" transform="rotate(-8.86367 309.061 88.0444)" fill="#FF5AA8"/>
<path d="M308.958 82.2634C308.999 82.1771 309.122 82.1771 309.163 82.2634L310.761 85.6118C310.778 85.6466 310.811 85.6706 310.849 85.6756L314.527 86.1605C314.622 86.173 314.66 86.2898 314.591 86.3557L311.9 88.91C311.872 88.9365 311.859 88.9753 311.866 89.0131L312.542 92.6612C312.559 92.7553 312.46 92.8275 312.376 92.7819L309.115 91.0121C309.081 90.9937 309.04 90.9937 309.006 91.0121L305.746 92.7819C305.662 92.8275 305.562 92.7553 305.58 92.6612L306.255 89.0131C306.262 88.9753 306.249 88.9365 306.222 88.91L303.531 86.3557C303.461 86.2898 303.499 86.173 303.594 86.1605L307.272 85.6756C307.311 85.6706 307.344 85.6466 307.36 85.6118L308.958 82.2634Z" fill="#FF9ACA"/>
<path d="M332.155 81.7847V93.0996H330.111V83.7681H330.045L327.398 85.4587V83.5968L330.205 81.7847H332.155ZM334.914 93.0996L334.908 91.6245L338.902 87.7736C340.046 86.63 340.643 85.956 340.648 85.0112C340.643 83.9504 339.809 83.2875 338.698 83.2875C337.538 83.2875 336.786 84.0167 336.792 85.1659H334.858C334.847 83.0223 336.455 81.63 338.726 81.63C341.03 81.63 342.588 83.0112 342.593 84.9062C342.588 86.188 341.974 87.2212 339.748 89.3206L337.742 91.3151V91.398H342.764V93.0996H334.914ZM346.836 91.9725L345.532 96.3538H344.046L344.847 91.9725H346.836ZM352.187 81.7847V93.0996H350.142V83.7681H350.076L347.43 85.4587V83.5968L350.236 81.7847H352.187ZM358.95 93.2543C356.696 93.2543 355.028 91.9062 354.967 90.0278H356.945C357.017 90.9504 357.884 91.6079 358.95 91.6079C360.221 91.6079 361.127 90.6963 361.127 89.4366C361.127 88.1493 360.193 87.2322 358.89 87.2212C358.011 87.2156 357.37 87.525 357.011 88.188H355.133L355.807 81.7847H362.492V83.4863H357.486L357.144 86.4919H357.243C357.685 85.9946 358.508 85.6355 359.442 85.6355C361.541 85.6355 363.099 87.2046 363.099 89.3814C363.099 91.641 361.398 93.2543 358.95 93.2543ZM368.831 81.63C371.041 81.641 373.24 82.967 373.245 87.0941C373.245 91.0002 371.483 93.2543 368.709 93.2543C366.521 93.2543 365.013 91.8952 364.765 90.0278H366.776C366.985 90.9173 367.676 91.4919 368.709 91.4919C370.345 91.4919 371.262 90.0444 371.273 87.6189H371.151C370.582 88.5968 369.494 89.1825 368.256 89.1825C366.229 89.1825 364.665 87.6466 364.66 85.5084C364.654 83.293 366.323 81.6189 368.831 81.63ZM366.637 85.4587C366.643 86.6742 367.544 87.63 368.814 87.63C370.068 87.63 371.041 86.6134 371.035 85.4477C371.03 84.293 370.107 83.2764 368.842 83.2764C367.571 83.2764 366.626 84.2488 366.637 85.4587Z" fill="#F9F9F9"/>
<rect width="402" height="55" fill="#191919"/>
<path d="M60.2996 24.1543C62.6571 24.1709 64.9813 25.5654 64.9979 29.9648C64.9979 34.1152 63.1219 36.5059 60.1668 36.5059C57.8426 36.5059 56.2489 35.0615 55.9832 33.0693H58.1248C58.3407 34.0156 59.0711 34.6299 60.1668 34.6299C61.91 34.6299 62.8895 33.0859 62.9061 30.5127H62.7733C62.159 31.5586 61.0135 32.1729 59.6854 32.1729C57.5438 32.1729 55.8836 30.5459 55.867 28.2715C55.867 25.9141 57.6268 24.1377 60.2996 24.1543ZM60.3162 25.8975C58.9715 25.8975 57.9588 26.9434 57.9754 28.2217C57.9754 29.5166 58.9383 30.5293 60.283 30.5293C61.6112 30.5293 62.6571 29.4502 62.6405 28.2051C62.6405 26.9766 61.661 25.8975 60.3162 25.8975ZM68.119 34.8457C67.4051 34.8457 66.8241 34.2646 66.8241 33.5508C66.8241 32.8535 67.4051 32.2725 68.119 32.2725C68.7996 32.2725 69.3973 32.8535 69.3973 33.5508C69.3973 34.2646 68.7996 34.8457 68.119 34.8457ZM68.119 28.4043C67.4051 28.4043 66.8241 27.8232 66.8241 27.1094C66.8241 26.4121 67.4051 25.8311 68.119 25.8311C68.7996 25.8311 69.3973 26.4121 69.3973 27.1094C69.3973 27.8232 68.7996 28.4043 68.119 28.4043ZM71.2069 34.0986V32.3721L76.4032 24.3203H79.0926V32.3223H80.6698V34.0986H79.0926V36.3398H77.034V34.0986H71.2069ZM73.4149 32.3223H77.0672V26.7773H76.9344L73.4149 32.2393V32.3223ZM87.1112 24.3203V36.3398H84.9364V26.4287H84.87L82.0643 28.2217V26.2461L85.036 24.3203H87.1112Z" fill="white"/>
<rect opacity="0.35" x="341.782" y="24.5" width="24" height="12" rx="3.8" stroke="white"/>
<path opacity="0.4" d="M367.282 28.7812V32.8567C368.087 32.5116 368.61 31.7086 368.61 30.819C368.61 29.9294 368.087 29.1264 367.282 28.7812Z" fill="white"/>
<rect x="343.282" y="26" width="21" height="9" rx="2.5" fill="white"/>
<path fill-rule="evenodd" clip-rule="evenodd" d="M325.553 27.104C328.04 27.1041 330.432 28.0262 332.234 29.6796C332.37 29.8073 332.587 29.8057 332.721 29.676L334.018 28.4126C334.086 28.3468 334.124 28.2577 334.123 28.165C334.123 28.0724 334.084 27.9837 334.015 27.9187C329.284 23.544 321.821 23.544 317.09 27.9187C317.021 27.9837 316.982 28.0723 316.981 28.165C316.981 28.2577 317.018 28.3468 317.086 28.4126L318.384 29.676C318.518 29.8059 318.735 29.8075 318.87 29.6796C320.673 28.0261 323.065 27.104 325.553 27.104ZM325.549 31.3243C326.907 31.3242 328.216 31.8359 329.222 32.76C329.358 32.8912 329.572 32.8883 329.705 32.7536L330.992 31.4343C331.06 31.3651 331.098 31.2712 331.097 31.1737C331.096 31.0761 331.056 30.9831 330.987 30.9153C327.923 28.0244 323.178 28.0244 320.114 30.9153C320.045 30.9831 320.006 31.0762 320.005 31.1738C320.004 31.2714 320.042 31.3652 320.11 31.4343L321.397 32.7536C321.529 32.8883 321.744 32.8912 321.88 32.76C322.885 31.8365 324.193 31.3248 325.549 31.3243ZM328.074 34.1178C328.076 34.2232 328.039 34.3247 327.971 34.3985L325.795 36.8533C325.731 36.9254 325.644 36.966 325.553 36.966C325.462 36.966 325.375 36.9254 325.312 36.8533L323.135 34.3985C323.067 34.3247 323.03 34.2231 323.032 34.1177C323.034 34.0124 323.075 33.9126 323.145 33.842C324.535 32.5281 326.571 32.5281 327.961 33.842C328.031 33.9127 328.072 34.0125 328.074 34.1178Z" fill="white"/>
<path fill-rule="evenodd" clip-rule="evenodd" d="M309.482 25.6819C309.482 25.0488 309.005 24.5356 308.416 24.5356H307.349C306.76 24.5356 306.282 25.0488 306.282 25.6819V35.6158C306.282 36.2489 306.76 36.7621 307.349 36.7621H308.416C309.005 36.7621 309.482 36.2489 309.482 35.6158V25.6819ZM302.048 26.9809H303.115C303.704 26.9809 304.181 27.5064 304.181 28.1547V35.5883C304.181 36.2366 303.704 36.7621 303.115 36.7621H302.048C301.459 36.7621 300.981 36.2366 300.981 35.5883V28.1547C300.981 27.5064 301.459 26.9809 302.048 26.9809ZM297.716 29.63H296.65C296.061 29.63 295.583 30.1622 295.583 30.8187V35.5734C295.583 36.2299 296.061 36.762 296.65 36.762H297.716C298.305 36.762 298.783 36.2299 298.783 35.5734V30.8187C298.783 30.1622 298.305 29.63 297.716 29.63ZM292.416 32.0753H291.349C290.76 32.0753 290.282 32.5999 290.282 33.247V35.5904C290.282 36.2375 290.76 36.7621 291.349 36.7621H292.416C293.005 36.7621 293.482 36.2375 293.482 35.5904V33.247C293.482 32.5999 293.005 32.0753 292.416 32.0753Z" fill="white"/>
<rect x="20.5" y="181.5" width="361" height="87" rx="13.5" stroke="#FF0078"/>
<path d="M114.756 216.05C114.756 219.25 112.802 221.135 110.211 221.135C107.606 221.135 105.667 219.24 105.667 216.05C105.667 212.849 107.606 210.964 110.211 210.964C112.802 210.964 114.756 212.849 114.756 216.05ZM107.456 216.05C107.456 218.312 108.592 219.535 110.211 219.535C111.826 219.535 112.962 218.312 112.962 216.05C112.962 213.787 111.826 212.564 110.211 212.564C108.592 212.564 107.456 213.787 107.456 216.05ZM117.796 221L115.694 213.575H117.468L118.778 218.805H118.845L120.18 213.575H121.939L123.278 218.776H123.346L124.642 213.575H126.416L124.313 221H122.505L121.103 215.968H121.006L119.609 221H117.796ZM130.621 221.145C128.382 221.145 127.014 219.656 127.014 217.331C127.014 215.039 128.402 213.478 130.524 213.478C132.346 213.478 133.918 214.619 133.918 217.229V217.766H128.74C128.759 219.042 129.509 219.791 130.64 219.791C131.399 219.791 131.916 219.458 132.143 219.013H133.845C133.531 220.299 132.346 221.145 130.621 221.145ZM128.745 216.586H132.245C132.24 215.576 131.558 214.836 130.553 214.836C129.504 214.836 128.798 215.639 128.745 216.586ZM137.017 211.099V221H135.277V211.099H137.017ZM140.435 211.099V221H138.695V211.099H140.435ZM145.517 211.099H147.697L150.641 218.293H150.757L153.706 211.099H155.887V221H154.175V214.189H154.083L151.338 220.971H150.061L147.311 214.164H147.228V221H145.517V211.099ZM160.897 221.145C158.726 221.145 157.339 219.613 157.339 217.316C157.339 215.015 158.726 213.478 160.897 213.478C163.067 213.478 164.45 215.015 164.45 217.316C164.45 219.613 163.067 221.145 160.897 221.145ZM159.098 217.311C159.098 218.67 159.693 219.753 160.901 219.753C162.091 219.753 162.685 218.67 162.685 217.311C162.685 215.953 162.091 214.856 160.901 214.856C159.693 214.856 159.098 215.953 159.098 217.311ZM169.059 221.145C166.888 221.145 165.501 219.613 165.501 217.316C165.501 215.015 166.888 213.478 169.059 213.478C171.229 213.478 172.612 215.015 172.612 217.316C172.612 219.613 171.229 221.145 169.059 221.145ZM167.26 217.311C167.26 218.67 167.855 219.753 169.063 219.753C170.253 219.753 170.847 218.67 170.847 217.311C170.847 215.953 170.253 214.856 169.063 214.856C167.855 214.856 167.26 215.953 167.26 217.311ZM176.742 221.131C174.992 221.131 173.677 219.738 173.677 217.297C173.677 214.822 175.026 213.478 176.747 213.478C178.057 213.478 178.603 214.266 178.869 214.798H178.937V211.099H180.677V221H178.971V219.83H178.869C178.589 220.372 178.018 221.131 176.742 221.131ZM175.451 217.287C175.451 218.684 176.065 219.704 177.221 219.704C178.342 219.704 178.98 218.733 178.98 217.287C178.98 215.842 178.352 214.909 177.221 214.909C176.051 214.909 175.451 215.9 175.451 217.287ZM195.634 209.862V222.238H194.121V209.862H195.634ZM186.009 212.168V210.935H191.829V215.571H187.585V218.056C189.528 218.046 191.205 217.95 193.134 217.626L193.27 218.868C191.167 219.231 189.32 219.308 187.101 219.308H186.018V214.363H190.282V212.168H186.009ZM203.822 211.549C203.818 213.463 205.688 215.378 208.275 215.832L207.593 217.099C205.519 216.669 203.822 215.416 203.02 213.753C202.208 215.402 200.511 216.659 198.447 217.099L197.78 215.832C200.327 215.368 202.198 213.454 202.208 211.549V210.64H203.822V211.549ZM197.436 220.642V219.385H208.734V220.642H197.436ZM219.785 209.862V217.108H218.271V209.862H219.785ZM210.266 216.277V210.65H211.794V215.015C213.635 214.996 215.337 214.86 217.16 214.479L217.343 215.711C215.308 216.146 213.398 216.282 211.315 216.277H210.266ZM211.387 219.733C211.383 218.157 213.021 217.229 215.622 217.234C218.213 217.229 219.838 218.157 219.847 219.733C219.838 221.276 218.213 222.204 215.622 222.199C213.021 222.204 211.383 221.276 211.387 219.733ZM212.91 219.733C212.905 220.536 213.892 220.99 215.622 220.985C217.343 220.99 218.31 220.536 218.32 219.733C218.31 218.892 217.343 218.467 215.622 218.467C213.892 218.467 212.905 218.892 212.91 219.733ZM232.011 211.066V212.298H230.827V217.863C231.383 217.819 231.934 217.766 232.461 217.703L232.533 218.8C229.981 219.24 227.114 219.289 224.967 219.298L224.798 218.041C225.262 218.041 225.765 218.041 226.287 218.037V212.298H225.108V211.066H232.011ZM227.762 218.012C228.289 217.998 228.825 217.979 229.362 217.954V212.298H227.762V218.012ZM233.113 222.209V209.862H234.636V214.648H236.541V215.89H234.636V222.209H233.113ZM243.966 210.921V212.163H239.276V214.372H243.472V215.576H239.276V218.124C241.297 218.114 242.834 218.037 244.618 217.751L244.768 218.984C242.82 219.284 241.084 219.342 238.807 219.352H237.773V210.921H243.966ZM245.841 222.209V209.862H247.374V222.209H245.841ZM263.777 219.506V220.753H252.479V219.506H257.362V216.949H258.865V219.506H263.777ZM252.943 216.19C255.626 215.837 257.227 214.416 257.338 212.874H253.48V211.646H257.362V210.055H258.865V211.646H262.757V212.874H258.899C259.001 214.416 260.606 215.837 263.284 216.19L262.723 217.379C260.581 217.075 258.933 216.122 258.111 214.773C257.299 216.122 255.66 217.075 253.514 217.379L252.943 216.19ZM275.209 209.862V222.209H273.769V215.919H272.377V221.595H270.979V210.094H272.377V214.691H273.769V209.862H275.209ZM264.961 219.327V211.322H269.577V212.545H266.484V218.046C267.832 218.037 268.935 217.969 270.191 217.727L270.312 218.974C268.814 219.274 267.518 219.318 265.802 219.327H264.961ZM287.13 209.872V219.182H285.578V217.693H283.065V216.49H285.578V209.872H287.13ZM276.596 214.619C278.105 214.604 279.971 214.59 281.827 214.474C282.011 213.323 282.064 212.41 282.083 211.738H277.713V210.524H283.606V210.998C283.606 211.641 283.606 212.787 283.355 214.353C283.785 214.314 284.205 214.266 284.621 214.208L284.723 215.291C283.664 215.474 282.562 215.6 281.479 215.677V218.39H279.971V215.765C278.825 215.818 277.742 215.827 276.79 215.827L276.596 214.619ZM278.356 221.977V218.196H279.879V220.744H287.415V221.977H278.356Z" fill="#F9F9F9"/>
<path d="M109.167 242.135C107.195 242.135 105.735 240.956 105.682 239.312H107.413C107.475 240.119 108.234 240.695 109.167 240.695C110.279 240.695 111.072 239.897 111.072 238.795C111.072 237.669 110.255 236.866 109.114 236.856C108.346 236.852 107.785 237.122 107.471 237.702H105.827L106.417 232.099H112.266V233.588H107.886L107.587 236.218H107.674C108.06 235.783 108.781 235.469 109.598 235.469C111.435 235.469 112.798 236.842 112.798 238.747C112.798 240.724 111.309 242.135 109.167 242.135ZM117.948 242.189C115.56 242.184 114.139 240.303 114.144 237.059C114.144 233.825 115.575 231.964 117.948 231.964C120.317 231.964 121.753 233.83 121.753 237.059C121.748 240.313 120.332 242.189 117.948 242.189ZM115.937 237.059C115.937 239.438 116.706 240.68 117.948 240.68C119.186 240.68 119.954 239.438 119.954 237.059C119.95 234.695 119.181 233.448 117.948 233.448C116.711 233.448 115.942 234.695 115.937 237.059ZM126.89 242.189C124.502 242.184 123.08 240.303 123.085 237.059C123.085 233.825 124.516 231.964 126.89 231.964C129.258 231.964 130.694 233.83 130.694 237.059C130.689 240.313 129.273 242.189 126.89 242.189ZM124.879 237.059C124.879 239.438 125.647 240.68 126.89 240.68C128.127 240.68 128.896 239.438 128.896 237.059C128.891 234.695 128.122 233.448 126.89 233.448C125.652 233.448 124.883 234.695 124.879 237.059ZM132.283 242V232.099H135.986C138.263 232.099 139.476 233.487 139.476 235.377C139.476 237.277 138.248 238.65 135.962 238.65H134.057V242H132.283ZM134.057 237.185H135.725C137.059 237.185 137.658 236.431 137.658 235.377C137.658 234.323 137.059 233.588 135.715 233.588H134.057V237.185Z" fill="#F70778"/>
<path d="M80.5439 206.5C78.9125 208.132 78.9125 210.777 80.5439 212.408C82.1246 213.989 84.6566 214.039 86.2968 212.557L86.4528 212.409L92.9521 218.908L56.9083 254.952L50.409 248.453C52.0407 246.821 52.0407 244.175 50.409 242.543C48.7773 240.912 46.1318 240.912 44.5001 242.544L38.0001 236.044L74.0439 200L80.5439 206.5Z" fill="#FF5AA8"/>
<path d="M69.5158 218.911C70.2162 218.403 71.1879 218.964 71.0978 219.824L70.5791 224.781C70.542 225.136 70.6969 225.483 70.9855 225.693L75.0157 228.624C75.7156 229.133 75.4824 230.231 74.6359 230.411L69.7621 231.449C69.413 231.523 69.13 231.778 69.0195 232.118L67.4776 236.856C67.2098 237.679 66.0939 237.797 65.6609 237.047L63.1675 232.733C62.9889 232.424 62.659 232.233 62.3021 232.233L57.319 232.231C56.4535 232.231 55.9972 231.206 56.576 230.562L59.9087 226.858C60.1475 226.592 60.2266 226.22 60.1165 225.88L58.5787 221.14C58.3116 220.317 59.1454 219.566 59.9362 219.918L64.4894 221.943C64.8155 222.088 65.1943 222.048 65.4832 221.838L69.5158 218.911Z" fill="#FF9ACA"/>
<rect x="321" y="208" width="46.2" height="33" rx="8" fill="#FF0078"/>
<path d="M342.55 219.015V219.96C342.55 220.95 342.55 222.036 342.268 223.532H343.731V224.593H339.525V228.972H338.212V224.593H334.08V223.532H340.951C341.241 222.09 341.253 221.012 341.253 220.064H335.224V219.015H342.55ZM353.588 218.373V228.956H352.337V223.532H351.21V228.45H349.975V218.555H351.21V222.463H352.337V218.373H353.588ZM344.779 226.233V219.517H348.939V226.233H344.779ZM346.001 225.206H347.717V220.544H346.001V225.206Z" fill="#F9F9F9"/>
<rect x="20.5" y="289.5" width="361" height="87" rx="13.5" stroke="#FF0078"/>
<path d="M105.923 329V319.099H109.709C111.85 319.099 112.909 320.192 112.909 321.671C112.909 322.87 112.15 323.547 111.183 323.774V323.871C112.237 323.929 113.296 324.804 113.296 326.302C113.296 327.845 112.189 329 109.921 329H105.923ZM107.698 327.511H109.641C110.946 327.511 111.492 326.955 111.492 326.167C111.492 325.278 110.796 324.601 109.694 324.601H107.698V327.511ZM107.698 323.315H109.486C110.424 323.315 111.135 322.769 111.135 321.894C111.135 321.13 110.584 320.574 109.525 320.574H107.698V323.315ZM122.882 319.099V329H121.301L116.612 322.237H116.53V329H114.755V319.099H116.356L121.025 325.867H121.112V319.099H122.882ZM124.722 329V319.099H126.496V323.658H126.627L130.499 319.099H132.679L128.841 323.542L132.708 329H130.562L127.603 324.746L126.496 326.051V329H124.722ZM137.136 329V319.099H143.469V320.598H138.91V323.296H143.034V324.789H138.91V329H137.136ZM147.642 329.145C145.404 329.145 144.036 327.656 144.036 325.331C144.036 323.039 145.423 321.478 147.545 321.478C149.368 321.478 150.939 322.619 150.939 325.229V325.766H145.762C145.781 327.042 146.53 327.791 147.661 327.791C148.42 327.791 148.938 327.458 149.165 327.013H150.867C150.552 328.299 149.368 329.145 147.642 329.145ZM145.766 324.586H149.266C149.262 323.576 148.58 322.836 147.574 322.836C146.525 322.836 145.82 323.639 145.766 324.586ZM151.95 326.916C151.95 325.239 153.338 324.751 154.715 324.659C155.233 324.625 156.291 324.577 156.615 324.562L156.61 323.963C156.61 323.233 156.141 322.807 155.266 322.807C154.488 322.807 154.014 323.16 153.884 323.692H152.197C152.322 322.435 153.454 321.478 155.315 321.478C156.722 321.478 158.346 322.058 158.346 324.035V329H156.678V327.98H156.62C156.301 328.599 155.605 329.15 154.44 329.15C153.023 329.15 151.95 328.376 151.95 326.916ZM153.632 326.892C153.632 327.535 154.155 327.869 154.885 327.869C155.943 327.869 156.62 327.168 156.62 326.336L156.615 325.722C156.301 325.737 155.334 325.8 154.986 325.834C154.155 325.896 153.632 326.244 153.632 326.892ZM159.995 329V321.575H161.683V322.812H161.76C162.031 321.952 162.746 321.468 163.592 321.468C163.786 321.468 164.061 321.488 164.225 321.517V323.117C164.071 323.068 163.703 323.015 163.413 323.015C162.451 323.015 161.736 323.687 161.736 324.625V329H159.995ZM166.816 319.099L169.001 322.735H169.078L171.278 319.099H173.313L170.258 324.05L173.357 329H171.292L169.078 325.394H169.001L166.792 329H164.732L167.865 324.05L164.771 319.099H166.816ZM187.704 317.862V330.238H186.191V317.862H187.704ZM178.079 320.168V318.935H183.899V323.571H179.655V326.056C181.598 326.046 183.276 325.95 185.205 325.626L185.34 326.868C183.237 327.231 181.39 327.308 179.172 327.308H178.089V322.363H182.352V320.168H178.079ZM195.893 319.549C195.888 321.463 197.759 323.378 200.345 323.832L199.663 325.099C197.589 324.669 195.893 323.416 195.09 321.753C194.278 323.402 192.581 324.659 190.517 325.099L189.85 323.832C192.397 323.368 194.268 321.454 194.278 319.549V318.64H195.893V319.549ZM189.507 328.642V327.385H200.804V328.642H189.507ZM211.855 317.862V325.108H210.342V317.862H211.855ZM202.336 324.277V318.65H203.864V323.015C205.706 322.996 207.407 322.86 209.23 322.479L209.414 323.711C207.378 324.146 205.469 324.282 203.385 324.277H202.336ZM203.458 327.733C203.453 326.157 205.092 325.229 207.693 325.234C210.284 325.229 211.908 326.157 211.918 327.733C211.908 329.276 210.284 330.204 207.693 330.199C205.092 330.204 203.453 329.276 203.458 327.733ZM204.981 327.733C204.976 328.536 205.962 328.99 207.693 328.985C209.414 328.99 210.38 328.536 210.39 327.733C210.38 326.892 209.414 326.467 207.693 326.467C205.962 326.467 204.976 326.892 204.981 327.733ZM224.081 319.066V320.298H222.897V325.863C223.453 325.819 224.004 325.766 224.531 325.703L224.603 326.8C222.051 327.24 219.184 327.289 217.038 327.298L216.869 326.041C217.333 326.041 217.835 326.041 218.358 326.037V320.298H217.178V319.066H224.081ZM219.832 326.012C220.359 325.998 220.896 325.979 221.432 325.954V320.298H219.832V326.012ZM225.183 330.209V317.862H226.706V322.648H228.611V323.89H226.706V330.209H225.183ZM236.036 318.921V320.163H231.347V322.372H235.543V323.576H231.347V326.124C233.367 326.114 234.905 326.037 236.688 325.751L236.838 326.984C234.89 327.284 233.155 327.342 230.878 327.352H229.843V318.921H236.036ZM237.912 330.209V317.862H239.444V330.209H237.912ZM255.847 327.506V328.753H244.55V327.506H249.432V324.949H250.936V327.506H255.847ZM245.014 324.19C247.697 323.837 249.297 322.416 249.408 320.874H245.55V319.646H249.432V318.055H250.936V319.646H254.827V320.874H250.969C251.071 322.416 252.676 323.837 255.354 324.19L254.793 325.379C252.652 325.075 251.003 324.122 250.181 322.773C249.369 324.122 247.731 325.075 245.584 325.379L245.014 324.19ZM267.28 317.862V330.209H265.839V323.919H264.447V329.595H263.05V318.094H264.447V322.691H265.839V317.862H267.28ZM257.031 327.327V319.322H261.648V320.545H258.554V326.046C259.903 326.037 261.005 325.969 262.262 325.727L262.383 326.974C260.884 327.274 259.588 327.318 257.872 327.327H257.031ZM279.2 317.872V327.182H277.649V325.693H275.135V324.49H277.649V317.872H279.2ZM268.667 322.619C270.175 322.604 272.041 322.59 273.897 322.474C274.081 321.323 274.134 320.41 274.153 319.738H269.783V318.524H275.676V318.998C275.676 319.641 275.676 320.787 275.425 322.353C275.855 322.314 276.276 322.266 276.691 322.208L276.793 323.291C275.734 323.474 274.632 323.6 273.549 323.677V326.39H272.041V323.765C270.895 323.818 269.812 323.827 268.86 323.827L268.667 322.619ZM270.426 329.977V326.196H271.949V328.744H279.486V329.977H270.426Z" fill="#F9F9F9"/>
<path d="M109.167 350.135C107.195 350.135 105.735 348.956 105.682 347.312H107.413C107.475 348.119 108.234 348.695 109.167 348.695C110.279 348.695 111.072 347.897 111.072 346.795C111.072 345.669 110.255 344.866 109.114 344.856C108.346 344.852 107.785 345.122 107.471 345.702H105.827L106.417 340.099H112.266V341.588H107.886L107.587 344.218H107.674C108.06 343.783 108.781 343.469 109.598 343.469C111.435 343.469 112.798 344.842 112.798 346.747C112.798 348.724 111.309 350.135 109.167 350.135ZM117.948 350.189C115.56 350.184 114.139 348.303 114.144 345.059C114.144 341.825 115.575 339.964 117.948 339.964C120.317 339.964 121.753 341.83 121.753 345.059C121.748 348.313 120.332 350.189 117.948 350.189ZM115.937 345.059C115.937 347.438 116.706 348.68 117.948 348.68C119.186 348.68 119.954 347.438 119.954 345.059C119.95 342.695 119.181 341.448 117.948 341.448C116.711 341.448 115.942 342.695 115.937 345.059ZM126.89 350.189C124.502 350.184 123.08 348.303 123.085 345.059C123.085 341.825 124.516 339.964 126.89 339.964C129.258 339.964 130.694 341.83 130.694 345.059C130.689 348.313 129.273 350.189 126.89 350.189ZM124.879 345.059C124.879 347.438 125.647 348.68 126.89 348.68C128.127 348.68 128.896 347.438 128.896 345.059C128.891 342.695 128.122 341.448 126.89 341.448C125.652 341.448 124.883 342.695 124.879 345.059ZM132.283 350V340.099H135.986C138.263 340.099 139.476 341.487 139.476 343.377C139.476 345.277 138.248 346.65 135.962 346.65H134.057V350H132.283ZM134.057 345.185H135.725C137.059 345.185 137.658 344.431 137.658 343.377C137.658 342.323 137.059 341.588 135.715 341.588H134.057V345.185Z" fill="#F70778"/>
<path d="M80.5439 314.5C78.9125 316.132 78.9125 318.777 80.5439 320.408C82.1246 321.989 84.6566 322.039 86.2968 320.557L86.4528 320.409L92.9521 326.908L56.9083 362.952L50.409 356.453C52.0407 354.821 52.0407 352.175 50.409 350.543C48.7773 348.912 46.1318 348.912 44.5001 350.544L38.0001 344.044L74.0439 308L80.5439 314.5Z" fill="#FF5AA8"/>
<path d="M69.5158 326.911C70.2162 326.403 71.1879 326.964 71.0978 327.824L70.5791 332.781C70.542 333.136 70.6969 333.483 70.9855 333.693L75.0157 336.624C75.7156 337.133 75.4824 338.231 74.6359 338.411L69.7621 339.449C69.413 339.523 69.13 339.778 69.0195 340.118L67.4776 344.856C67.2098 345.679 66.0939 345.797 65.6609 345.047L63.1675 340.733C62.9889 340.424 62.659 340.233 62.3021 340.233L57.319 340.231C56.4535 340.231 55.9972 339.206 56.576 338.562L59.9087 334.858C60.1475 334.592 60.2266 334.22 60.1165 333.88L58.5787 329.14C58.3116 328.317 59.1454 327.566 59.9362 327.918L64.4894 329.943C64.8155 330.088 65.1943 330.048 65.4832 329.838L69.5158 326.911Z" fill="#FF9ACA"/>
<rect x="321" y="316" width="46.2" height="33" rx="8" fill="#8A8A8A"/>
<path d="M337.279 326.829C338.825 326.829 339.927 327.686 339.935 328.959C339.927 330.015 339.136 330.803 337.955 331.022V331.88C338.837 331.826 339.724 331.747 340.549 331.627L340.648 332.58C338.448 332.974 335.991 333.019 334.196 333.015L334.06 331.971C334.822 331.975 335.713 331.971 336.645 331.938V331.03C335.435 330.823 334.623 330.028 334.631 328.959C334.623 327.686 335.725 326.829 337.279 326.829ZM335.506 336.745V333.757H336.815V335.688H342.848V336.745H335.506ZM335.846 328.959C335.837 329.655 336.434 330.086 337.279 330.094C338.129 330.086 338.701 329.655 338.709 328.959C338.701 328.246 338.129 327.819 337.279 327.815C336.434 327.819 335.837 328.246 335.846 328.959ZM341.17 334.47V326.381H342.475V329.796H343.905V330.885H342.475V334.47H341.17ZM354.135 334.656V335.733H344.451V334.656H347.012V332.912H345.599V329.452H351.699V328.146H345.583V327.094H352.987V330.496H346.9V331.851H353.232V332.912H351.682V334.656H354.135ZM348.28 334.656H350.402V332.912H348.28V334.656Z" fill="#191919"/>
<rect x="20.5" y="397.5" width="361" height="87" rx="13.5" stroke="#8A8A8A"/>
<path d="M114.756 432.05C114.756 435.25 112.802 437.135 110.211 437.135C107.606 437.135 105.667 435.24 105.667 432.05C105.667 428.849 107.606 426.964 110.211 426.964C112.802 426.964 114.756 428.849 114.756 432.05ZM107.456 432.05C107.456 434.312 108.592 435.535 110.211 435.535C111.826 435.535 112.962 434.312 112.962 432.05C112.962 429.787 111.826 428.564 110.211 428.564C108.592 428.564 107.456 429.787 107.456 432.05ZM117.796 437L115.694 429.575H117.468L118.778 434.805H118.845L120.18 429.575H121.939L123.278 434.776H123.346L124.642 429.575H126.416L124.313 437H122.505L121.103 431.968H121.006L119.609 437H117.796ZM130.621 437.145C128.382 437.145 127.014 435.656 127.014 433.331C127.014 431.039 128.402 429.478 130.524 429.478C132.346 429.478 133.918 430.619 133.918 433.229V433.766H128.74C128.759 435.042 129.509 435.791 130.64 435.791C131.399 435.791 131.916 435.458 132.143 435.013H133.845C133.531 436.299 132.346 437.145 130.621 437.145ZM128.745 432.586H132.245C132.24 431.576 131.558 430.836 130.553 430.836C129.504 430.836 128.798 431.639 128.745 432.586ZM137.017 427.099V437H135.277V427.099H137.017ZM140.435 427.099V437H138.695V427.099H140.435ZM145.517 427.099H147.697L150.641 434.293H150.757L153.706 427.099H155.887V437H154.175V430.189H154.083L151.338 436.971H150.061L147.311 430.164H147.228V437H145.517V427.099ZM160.897 437.145C158.726 437.145 157.339 435.613 157.339 433.316C157.339 431.015 158.726 429.478 160.897 429.478C163.067 429.478 164.45 431.015 164.45 433.316C164.45 435.613 163.067 437.145 160.897 437.145ZM159.098 433.311C159.098 434.67 159.693 435.753 160.901 435.753C162.091 435.753 162.685 434.67 162.685 433.311C162.685 431.953 162.091 430.856 160.901 430.856C159.693 430.856 159.098 431.953 159.098 433.311ZM169.059 437.145C166.888 437.145 165.501 435.613 165.501 433.316C165.501 431.015 166.888 429.478 169.059 429.478C171.229 429.478 172.612 431.015 172.612 433.316C172.612 435.613 171.229 437.145 169.059 437.145ZM167.26 433.311C167.26 434.67 167.855 435.753 169.063 435.753C170.253 435.753 170.847 434.67 170.847 433.311C170.847 431.953 170.253 430.856 169.063 430.856C167.855 430.856 167.26 431.953 167.26 433.311ZM176.742 437.131C174.992 437.131 173.677 435.738 173.677 433.297C173.677 430.822 175.026 429.478 176.747 429.478C178.057 429.478 178.603 430.266 178.869 430.798H178.937V427.099H180.677V437H178.971V435.83H178.869C178.589 436.372 178.018 437.131 176.742 437.131ZM175.451 433.287C175.451 434.684 176.065 435.704 177.221 435.704C178.342 435.704 178.98 434.733 178.98 433.287C178.98 431.842 178.352 430.909 177.221 430.909C176.051 430.909 175.451 431.9 175.451 433.287ZM185.849 437V427.099H192.182V428.598H187.623V431.296H191.747V432.789H187.623V437H185.849ZM193.7 437H191.795L195.286 427.099H197.48L200.971 437H199.071L198.249 434.549H194.522L193.7 437ZM195 433.118H197.765L196.422 429.12H196.344L195 433.118ZM210.286 427.099V437H208.705L204.016 430.237H203.934V437H202.16V427.099H203.76L208.43 433.867H208.517V427.099H210.286ZM226.234 435.453V436.724H214.936V435.453H226.234ZM215.86 428.231V427.003H225.248V428.231H223.435V432.161H225.199V433.369H215.898V432.161H217.648V428.231H215.86ZM219.161 432.161H221.936V428.231H219.161V432.161ZM237.333 425.862V438.238H235.82V425.862H237.333ZM227.708 428.168V426.935H233.528V431.571H229.284V434.056C231.227 434.046 232.905 433.95 234.834 433.626L234.969 434.868C232.866 435.231 231.019 435.308 228.8 435.308H227.718V430.363H231.981V428.168H227.708ZM245.667 427.017V435.211H239.783V427.017H245.667ZM241.296 433.998H244.187V428.206H241.296V433.998ZM247.886 438.238V425.862H249.418V438.238H247.886ZM254.663 426.539C256.268 426.534 257.524 427.467 257.829 428.859H260.067V425.862H261.585V432.896H260.067V430.092H257.844C257.568 431.518 256.292 432.48 254.663 432.475C252.797 432.48 251.395 431.252 251.404 429.512C251.395 427.771 252.797 426.534 254.663 426.539ZM252.85 429.512C252.85 430.551 253.609 431.189 254.663 431.199C255.687 431.189 256.451 430.551 256.451 429.512C256.451 428.477 255.687 427.805 254.663 427.81C253.609 427.805 252.85 428.477 252.85 429.512ZM253.362 438.064V433.471H261.585V438.064H253.362ZM254.88 436.836H260.096V434.68H254.88V436.836Z" fill="#F9F9F9"/>
<path d="M111.419 458.135C109.306 458.135 107.798 456.985 107.749 455.312H109.548C109.591 456.115 110.384 456.637 111.414 456.637C112.506 456.637 113.294 456.037 113.289 455.162C113.294 454.268 112.526 453.63 111.235 453.63H110.355V452.257H111.235C112.289 452.257 113.023 451.672 113.023 450.807C113.023 449.975 112.395 449.414 111.438 449.414C110.5 449.414 109.698 449.936 109.664 450.763H107.957C107.996 449.105 109.504 447.964 111.448 447.964C113.449 447.964 114.749 449.192 114.74 450.705C114.749 451.822 114.015 452.619 112.927 452.847V452.924C114.329 453.113 115.122 454.007 115.112 455.254C115.122 456.922 113.56 458.135 111.419 458.135ZM120.317 458.189C117.929 458.184 116.508 456.303 116.513 453.059C116.513 449.825 117.944 447.964 120.317 447.964C122.686 447.964 124.122 449.83 124.122 453.059C124.117 456.313 122.701 458.189 120.317 458.189ZM118.306 453.059C118.306 455.438 119.075 456.68 120.317 456.68C121.555 456.68 122.324 455.438 122.324 453.059C122.319 450.695 121.55 449.448 120.317 449.448C119.08 449.448 118.311 450.695 118.306 453.059ZM129.259 458.189C126.871 458.184 125.449 456.303 125.454 453.059C125.454 449.825 126.885 447.964 129.259 447.964C131.628 447.964 133.063 449.83 133.063 453.059C133.059 456.313 131.642 458.189 129.259 458.189ZM127.248 453.059C127.248 455.438 128.016 456.68 129.259 456.68C130.496 456.68 131.265 455.438 131.265 453.059C131.26 450.695 130.492 449.448 129.259 449.448C128.021 449.448 127.253 450.695 127.248 453.059ZM134.652 458V448.099H138.355C140.632 448.099 141.845 449.487 141.845 451.377C141.845 453.277 140.617 454.65 138.331 454.65H136.426V458H134.652ZM136.426 453.185H138.094C139.428 453.185 140.028 452.431 140.028 451.377C140.028 450.323 139.428 449.588 138.084 449.588H136.426V453.185Z" fill="#F70778"/>
<rect x="321" y="424" width="46.2" height="33" rx="8" fill="#FF0078"/>
<path d="M342.55 435.015V435.96C342.55 436.95 342.55 438.036 342.268 439.532H343.731V440.593H339.525V444.972H338.212V440.593H334.08V439.532H340.951C341.241 438.09 341.253 437.012 341.253 436.064H335.224V435.015H342.55ZM353.588 434.373V444.956H352.337V439.532H351.21V444.45H349.975V434.555H351.21V438.463H352.337V434.373H353.588ZM344.779 442.233V435.517H348.939V442.233H344.779ZM346.001 441.206H347.717V436.544H346.001V441.206Z" fill="#F9F9F9"/>
<rect x="43" y="426" width="47" height="31" rx="5" fill="#FF5AA8"/>
<path d="M74.3899 440.622C75.0849 441.001 75.0849 441.999 74.3899 442.378L63.9787 448.055C63.3124 448.418 62.5 447.936 62.5 447.177L62.5 435.823C62.5 435.064 63.3124 434.582 63.9787 434.945L74.3899 440.622Z" fill="#FF9ACA"/>
<rect x="20.5" y="505.5" width="361" height="87" rx="13.5" stroke="#8A8A8A"/>
<path d="M105.923 545V535.099H109.709C111.85 535.099 112.909 536.192 112.909 537.671C112.909 538.87 112.15 539.547 111.183 539.774V539.871C112.237 539.929 113.296 540.804 113.296 542.302C113.296 543.845 112.189 545 109.921 545H105.923ZM107.698 543.511H109.641C110.946 543.511 111.492 542.955 111.492 542.167C111.492 541.278 110.796 540.601 109.694 540.601H107.698V543.511ZM107.698 539.315H109.486C110.424 539.315 111.135 538.769 111.135 537.894C111.135 537.13 110.584 536.574 109.525 536.574H107.698V539.315ZM122.882 535.099V545H121.301L116.612 538.237H116.53V545H114.755V535.099H116.356L121.025 541.867H121.112V535.099H122.882ZM124.722 545V535.099H126.496V539.658H126.627L130.499 535.099H132.679L128.841 539.542L132.708 545H130.562L127.603 540.746L126.496 542.051V545H124.722ZM137.136 545V535.099H143.469V536.598H138.91V539.296H143.034V540.789H138.91V545H137.136ZM147.642 545.145C145.404 545.145 144.036 543.656 144.036 541.331C144.036 539.039 145.423 537.478 147.545 537.478C149.368 537.478 150.939 538.619 150.939 541.229V541.766H145.762C145.781 543.042 146.53 543.791 147.661 543.791C148.42 543.791 148.938 543.458 149.165 543.013H150.867C150.552 544.299 149.368 545.145 147.642 545.145ZM145.766 540.586H149.266C149.262 539.576 148.58 538.836 147.574 538.836C146.525 538.836 145.82 539.639 145.766 540.586ZM151.95 542.916C151.95 541.239 153.338 540.751 154.715 540.659C155.233 540.625 156.291 540.577 156.615 540.562L156.61 539.963C156.61 539.233 156.141 538.807 155.266 538.807C154.488 538.807 154.014 539.16 153.884 539.692H152.197C152.322 538.435 153.454 537.478 155.315 537.478C156.722 537.478 158.346 538.058 158.346 540.035V545H156.678V543.98H156.62C156.301 544.599 155.605 545.15 154.44 545.15C153.023 545.15 151.95 544.376 151.95 542.916ZM153.632 542.892C153.632 543.535 154.155 543.869 154.885 543.869C155.943 543.869 156.62 543.168 156.62 542.336L156.615 541.722C156.301 541.737 155.334 541.8 154.986 541.834C154.155 541.896 153.632 542.244 153.632 542.892ZM159.995 545V537.575H161.683V538.812H161.76C162.031 537.952 162.746 537.468 163.592 537.468C163.786 537.468 164.061 537.488 164.225 537.517V539.117C164.071 539.068 163.703 539.015 163.413 539.015C162.451 539.015 161.736 539.687 161.736 540.625V545H159.995ZM166.816 535.099L169.001 538.735H169.078L171.278 535.099H173.313L170.258 540.05L173.357 545H171.292L169.078 541.394H169.001L166.792 545H164.732L167.865 540.05L164.771 535.099H166.816ZM177.919 545V535.099H184.252V536.598H179.694V539.296H183.817V540.789H179.694V545H177.919ZM185.77 545H183.865L187.356 535.099H189.551L193.041 545H191.141L190.319 542.549H186.592L185.77 545ZM187.071 541.118H189.836L188.492 537.12H188.415L187.071 541.118ZM202.356 535.099V545H200.776L196.086 538.237H196.004V545H194.23V535.099H195.83L200.5 541.867H200.587V535.099H202.356ZM218.304 543.453V544.724H207.007V543.453H218.304ZM207.93 536.231V535.003H217.318V536.231H215.505V540.161H217.27V541.369H207.969V540.161H209.719V536.231H207.93ZM211.232 540.161H214.007V536.231H211.232V540.161ZM229.403 533.862V546.238H227.89V533.862H229.403ZM219.778 536.168V534.935H225.599V539.571H221.354V542.056C223.298 542.046 224.975 541.95 226.904 541.626L227.039 542.868C224.936 543.231 223.09 543.308 220.871 543.308H219.788V538.363H224.052V536.168H219.778ZM237.737 535.017V543.211H231.854V535.017H237.737ZM233.367 541.998H236.258V536.206H233.367V541.998ZM239.956 546.238V533.862H241.488V546.238H239.956ZM246.733 534.539C248.338 534.534 249.595 535.467 249.899 536.859H252.138V533.862H253.656V540.896H252.138V538.092H249.914C249.638 539.518 248.362 540.48 246.733 540.475C244.867 540.48 243.465 539.252 243.475 537.512C243.465 535.771 244.867 534.534 246.733 534.539ZM244.92 537.512C244.92 538.551 245.679 539.189 246.733 539.199C247.758 539.189 248.522 538.551 248.522 537.512C248.522 536.477 247.758 535.805 246.733 535.81C245.679 535.805 244.92 536.477 244.92 537.512ZM245.433 546.064V541.471H253.656V546.064H245.433ZM246.95 544.836H252.167V542.68H246.95V544.836Z" fill="#F9F9F9"/>
<path d="M111.419 566.135C109.306 566.135 107.798 564.985 107.749 563.312H109.548C109.591 564.115 110.384 564.637 111.414 564.637C112.506 564.637 113.294 564.037 113.289 563.162C113.294 562.268 112.526 561.63 111.235 561.63H110.355V560.257H111.235C112.289 560.257 113.023 559.672 113.023 558.807C113.023 557.975 112.395 557.414 111.438 557.414C110.5 557.414 109.698 557.936 109.664 558.763H107.957C107.996 557.105 109.504 555.964 111.448 555.964C113.449 555.964 114.749 557.192 114.74 558.705C114.749 559.822 114.015 560.619 112.927 560.847V560.924C114.329 561.113 115.122 562.007 115.112 563.254C115.122 564.922 113.56 566.135 111.419 566.135ZM120.317 566.189C117.929 566.184 116.508 564.303 116.513 561.059C116.513 557.825 117.944 555.964 120.317 555.964C122.686 555.964 124.122 557.83 124.122 561.059C124.117 564.313 122.701 566.189 120.317 566.189ZM118.306 561.059C118.306 563.438 119.075 564.68 120.317 564.68C121.555 564.68 122.324 563.438 122.324 561.059C122.319 558.695 121.55 557.448 120.317 557.448C119.08 557.448 118.311 558.695 118.306 561.059ZM129.259 566.189C126.871 566.184 125.449 564.303 125.454 561.059C125.454 557.825 126.885 555.964 129.259 555.964C131.628 555.964 133.063 557.83 133.063 561.059C133.059 564.313 131.642 566.189 129.259 566.189ZM127.248 561.059C127.248 563.438 128.016 564.68 129.259 564.68C130.496 564.68 131.265 563.438 131.265 561.059C131.26 558.695 130.492 557.448 129.259 557.448C128.021 557.448 127.253 558.695 127.248 561.059ZM134.652 566V556.099H138.355C140.632 556.099 141.845 557.487 141.845 559.377C141.845 561.277 140.617 562.65 138.331 562.65H136.426V566H134.652ZM136.426 561.185H138.094C139.428 561.185 140.028 560.431 140.028 559.377C140.028 558.323 139.428 557.588 138.084 557.588H136.426V561.185Z" fill="#F70778"/>
<rect x="43" y="534" width="47" height="31" rx="5" fill="#FF5AA8"/>
<path d="M74.3899 548.622C75.0849 549.001 75.0849 549.999 74.3899 550.378L63.9787 556.055C63.3124 556.418 62.5 555.936 62.5 555.177L62.5 543.823C62.5 543.064 63.3124 542.582 63.9787 542.945L74.3899 548.622Z" fill="#FF9ACA"/>
<rect x="321" y="532" width="46.2" height="33" rx="8" fill="#8A8A8A"/>
<path d="M337.279 542.829C338.825 542.829 339.927 543.686 339.935 544.959C339.927 546.015 339.136 546.803 337.955 547.022V547.88C338.837 547.826 339.724 547.747 340.549 547.627L340.648 548.58C338.448 548.974 335.991 549.019 334.196 549.015L334.06 547.971C334.822 547.975 335.713 547.971 336.645 547.938V547.03C335.435 546.823 334.623 546.028 334.631 544.959C334.623 543.686 335.725 542.829 337.279 542.829ZM335.506 552.745V549.757H336.815V551.688H342.848V552.745H335.506ZM335.846 544.959C335.837 545.655 336.434 546.086 337.279 546.094C338.129 546.086 338.701 545.655 338.709 544.959C338.701 544.246 338.129 543.819 337.279 543.815C336.434 543.819 335.837 544.246 335.846 544.959ZM341.17 550.47V542.381H342.475V545.796H343.905V546.885H342.475V550.47H341.17ZM354.135 550.656V551.733H344.451V550.656H347.012V548.912H345.599V545.452H351.699V544.146H345.583V543.094H352.987V546.496H346.9V547.851H353.232V548.912H351.682V550.656H354.135ZM348.28 550.656H350.402V548.912H348.28V550.656Z" fill="#191919"/>
<rect x="20.5" y="613.5" width="361" height="87" rx="13.5" stroke="#8A8A8A"/>
<path d="M115.708 641.862V654.238H114.195V641.862H115.708ZM106.083 644.168V642.935H111.903V647.571H107.659V650.056C109.602 650.046 111.28 649.95 113.209 649.626L113.344 650.868C111.241 651.231 109.394 651.308 107.175 651.308H106.093V646.363H110.356V644.168H106.083ZM127.339 643.056V644.458C127.339 646.106 127.339 647.813 126.889 650.409L125.347 650.278C125.825 647.852 125.825 646.058 125.83 644.458V644.289H118.7V643.056H127.339ZM117.511 652.526V651.274H128.769V652.526H117.511ZM144.216 648.785V650.017H141.46V654.209H139.923V650.017H137.177V654.209H135.62V650.017H132.918V648.785H144.216ZM134.102 645.062C134.097 643.38 135.905 642.302 138.535 642.302C141.17 642.302 142.988 643.38 142.988 645.062C142.988 646.715 141.17 647.765 138.535 647.76C135.905 647.765 134.097 646.715 134.102 645.062ZM135.669 645.062C135.659 646.005 136.79 646.556 138.535 646.556C140.29 646.556 141.417 646.005 141.421 645.062C141.417 644.09 140.29 643.525 138.535 643.525C136.79 643.525 135.659 644.09 135.669 645.062ZM149.697 645.367C149.697 647.397 150.886 649.529 152.873 650.36L152.047 651.559C150.587 650.926 149.513 649.631 148.948 648.059C148.382 649.756 147.299 651.182 145.849 651.869L144.974 650.67C146.927 649.776 148.14 647.474 148.15 645.367V644.327H145.428V643.08H152.395V644.327H149.697V645.367ZM153.782 654.209V641.862H155.314V654.209H153.782ZM167.583 641.872V651.182H166.031V649.693H163.518V648.49H166.031V641.872H167.583ZM157.049 646.619C158.558 646.604 160.424 646.59 162.28 646.474C162.464 645.323 162.517 644.41 162.536 643.738H158.166V642.524H164.059V642.998C164.059 643.641 164.059 644.787 163.808 646.353C164.238 646.314 164.659 646.266 165.074 646.208L165.176 647.291C164.117 647.474 163.015 647.6 161.932 647.677V650.39H160.424V647.765C159.278 647.818 158.195 647.827 157.243 647.827L157.049 646.619ZM158.809 653.977V650.196H160.332V652.744H167.868V653.977H158.809Z" fill="#F9F9F9"/>
<path d="M111.839 664.099V674H110.05V665.835H109.992L107.677 667.314V665.685L110.133 664.099H111.839ZM117.897 674.189C115.509 674.184 114.088 672.303 114.093 669.059C114.093 665.825 115.524 663.964 117.897 663.964C120.266 663.964 121.702 665.83 121.702 669.059C121.697 672.313 120.281 674.189 117.897 674.189ZM115.886 669.059C115.886 671.438 116.655 672.68 117.897 672.68C119.135 672.68 119.904 671.438 119.904 669.059C119.899 666.695 119.13 665.448 117.897 665.448C116.66 665.448 115.891 666.695 115.886 669.059ZM126.839 674.189C124.451 674.184 123.029 672.303 123.034 669.059C123.034 665.825 124.465 663.964 126.839 663.964C129.208 663.964 130.643 665.83 130.643 669.059C130.639 672.313 129.222 674.189 126.839 674.189ZM124.828 669.059C124.828 671.438 125.596 672.68 126.839 672.68C128.076 672.68 128.845 671.438 128.845 669.059C128.84 666.695 128.072 665.448 126.839 665.448C125.601 665.448 124.833 666.695 124.828 669.059ZM132.232 674V664.099H135.935C138.212 664.099 139.425 665.487 139.425 667.377C139.425 669.277 138.197 670.65 135.911 670.65H134.006V674H132.232ZM134.006 669.185H135.674C137.008 669.185 137.608 668.431 137.608 667.377C137.608 666.323 137.008 665.588 135.664 665.588H134.006V669.185Z" fill="#F70778"/>
<rect x="321" y="640" width="46.2" height="33" rx="8" fill="#FF0078"/>
<path d="M342.55 651.015V651.96C342.55 652.95 342.55 654.036 342.268 655.532H343.731V656.593H339.525V660.972H338.212V656.593H334.08V655.532H340.951C341.241 654.09 341.253 653.012 341.253 652.064H335.224V651.015H342.55ZM353.588 650.373V660.956H352.337V655.532H351.21V660.45H349.975V650.555H351.21V654.463H352.337V650.373H353.588ZM344.779 658.233V651.517H348.939V658.233H344.779ZM346.001 657.206H347.717V652.544H346.001V657.206Z" fill="#F9F9F9"/>
<path d="M283.566 654.928V662H282.288V656.168H282.247L280.593 657.224V656.061L282.347 654.928H283.566ZM292.572 654.044V662.863H291.526V658.336H290.576V662.456H289.565V654.279H290.576V657.456H291.526V654.044H292.572ZM284.924 660.267C286.802 659.189 287.6 657.794 287.755 656.03H285.331V655.149H288.815C288.808 657.539 288.056 659.59 285.552 661.023L284.924 660.267ZM304.078 660.916V661.803H296.008V660.916H299.486V659.196H296.896V654.628H297.983V656.071H302.072V654.628H303.153V659.196H300.563V660.916H304.078ZM297.983 658.323H302.072V656.941H297.983V658.323ZM312.71 658.989V659.869H310.742V662.863H309.644V659.869H307.683V662.863H306.571V659.869H304.641V658.989H312.71ZM305.487 656.33C305.483 655.128 306.775 654.358 308.653 654.358C310.535 654.358 311.833 655.128 311.833 656.33C311.833 657.511 310.535 658.26 308.653 658.257C306.775 658.26 305.483 657.511 305.487 656.33ZM306.605 656.33C306.598 657.003 307.406 657.397 308.653 657.397C309.906 657.397 310.711 657.003 310.714 656.33C310.711 655.636 309.906 655.232 308.653 655.232C307.406 655.232 306.598 655.636 306.605 656.33Z" fill="#8A8A8A"/>
<rect x="45" y="651" width="45" height="12" fill="#FF5AA8"/>
<rect x="20.5" y="721.5" width="361" height="87" rx="13.5" stroke="#8A8A8A"/>
<path d="M115.761 749.872V758.936H114.243V755.871H111.299C110.709 756.533 109.834 756.934 108.838 756.934C106.977 756.934 105.57 755.605 105.58 753.778C105.57 751.936 106.977 750.616 108.838 750.606C109.829 750.611 110.704 751.008 111.294 751.67H114.243V749.872H115.761ZM107.026 753.778C107.026 754.88 107.78 755.586 108.838 755.59C109.854 755.586 110.627 754.88 110.627 753.778C110.627 752.675 109.854 751.965 108.838 751.965C107.78 751.965 107.026 752.675 107.026 753.778ZM107.654 761.977V758.012H109.172V760.744H116.07V761.977H107.654ZM111.956 752.898C112.034 753.173 112.077 753.468 112.077 753.778C112.077 754.082 112.034 754.372 111.961 754.643H114.243V752.898H111.956ZM128.784 755.934V757.162H117.511V755.934H122.374V754.213H123.882V755.934H128.784ZM118.12 753.724C120.672 753.401 122.35 752.003 122.35 750.529V750.06H123.897V750.529C123.897 752.037 125.555 753.401 128.136 753.724L127.546 754.923C125.516 754.604 123.901 753.691 123.113 752.39C122.325 753.686 120.706 754.604 118.676 754.923L118.12 753.724ZM118.758 759.337V758.148H127.397V762.209H125.869V759.337H118.758ZM144.172 755.204V756.32H139.309V757.224H142.789V760.125H135.76V760.976H143.128V762.107H134.271V759.09H141.291V758.322H134.257V757.224H137.8V756.32H132.957V755.204H144.172ZM133.445 753.662C135.886 753.541 137.327 752.878 137.641 752.003H134.039V750.867H137.796V749.833H139.304V750.867H143.084V752.003H139.459C139.763 752.878 141.204 753.541 143.669 753.662L143.22 754.793C140.991 754.657 139.328 754.053 138.55 753.052C137.776 754.053 136.113 754.657 133.87 754.793L133.445 753.662ZM149.523 751.81C149.513 753.401 150.509 754.919 152.409 755.537L151.597 756.746C150.253 756.277 149.296 755.339 148.769 754.155C148.227 755.45 147.222 756.465 145.801 756.988L144.979 755.76C146.985 755.097 147.981 753.478 147.991 751.723V750.495H149.523V751.81ZM146.956 758.999V757.795H155.382V762.209H153.864V758.999H146.956ZM151.404 753.507V752.26H153.864V749.862H155.382V757.195H153.864V753.507H151.404ZM164.229 753.633C164.229 755.547 165.013 757.471 166.743 758.404L165.897 759.521C164.742 758.916 163.964 757.829 163.524 756.528C163.089 757.93 162.31 759.129 161.15 759.811L160.265 758.665C162.015 757.65 162.784 755.586 162.794 753.633V753.246H160.686V752.018H162.794V750.297H164.225V752.018H166.294V753.246H164.229V753.633ZM165.525 755.861V754.609H167.144V750.094H168.571V761.614H167.144V755.861H165.525ZM169.644 762.209V749.862H171.084V762.209H169.644ZM182.575 751.003V752.477C182.57 754.276 182.57 755.977 182.024 758.597L180.506 758.462C180.757 757.384 180.897 756.432 180.98 755.561L173.699 755.924L173.501 754.696L181.052 754.416C181.081 753.749 181.081 753.11 181.086 752.477V752.235H173.864V751.003H182.575ZM172.553 760.642V759.395H183.812V760.642H172.553ZM198.326 749.862V757.205H196.808V754.184H194.695V752.941H196.808V749.862H198.326ZM187.937 755.963C189.924 755.286 190.968 753.623 190.968 751.984V751.892H188.391V750.664H195.072V751.892H192.515V751.97C192.515 753.483 193.511 755.001 195.42 755.639L194.661 756.843C193.288 756.378 192.312 755.436 191.77 754.271C191.229 755.586 190.199 756.649 188.73 757.166L187.937 755.963ZM189.938 759.864C189.933 758.38 191.533 757.515 194.144 757.51C196.759 757.515 198.359 758.38 198.359 759.864C198.359 761.348 196.759 762.213 194.144 762.218C191.533 762.213 189.933 761.348 189.938 759.864ZM191.451 759.864C191.442 760.633 192.423 761.048 194.144 761.039C195.87 761.048 196.846 760.633 196.851 759.864C196.846 759.09 195.87 758.68 194.144 758.68C192.423 758.68 191.442 759.09 191.451 759.864ZM204.74 753.367C204.74 755.397 205.929 757.529 207.916 758.36L207.089 759.559C205.63 758.926 204.556 757.631 203.991 756.059C203.425 757.756 202.342 759.182 200.892 759.869L200.017 758.67C201.97 757.776 203.183 755.474 203.193 753.367V752.327H200.471V751.08H207.438V752.327H204.74V753.367ZM208.825 762.209V749.862H210.357V762.209H208.825ZM222.626 749.872V759.182H221.074V757.693H218.561V756.49H221.074V749.872H222.626ZM212.092 754.619C213.601 754.604 215.467 754.59 217.323 754.474C217.507 753.323 217.56 752.41 217.579 751.738H213.209V750.524H219.102V750.998C219.102 751.641 219.102 752.787 218.851 754.353C219.281 754.314 219.702 754.266 220.117 754.208L220.219 755.291C219.16 755.474 218.058 755.6 216.975 755.677V758.39H215.467V755.765C214.321 755.818 213.238 755.827 212.286 755.827L212.092 754.619ZM213.852 761.977V758.196H215.375V760.744H222.911V761.977H213.852Z" fill="#F9F9F9"/>
<path d="M111.331 782.135C109.359 782.135 107.899 780.956 107.846 779.312H109.577C109.64 780.119 110.398 780.695 111.331 780.695C112.443 780.695 113.236 779.897 113.236 778.795C113.236 777.669 112.419 776.866 111.278 776.856C110.51 776.852 109.949 777.122 109.635 777.702H107.991L108.581 772.099H114.43V773.588H110.05L109.751 776.218H109.838C110.224 775.783 110.945 775.469 111.762 775.469C113.599 775.469 114.962 776.842 114.962 778.747C114.962 780.724 113.473 782.135 111.331 782.135ZM120.112 782.189C117.724 782.184 116.303 780.303 116.308 777.059C116.308 773.825 117.739 771.964 120.112 771.964C122.481 771.964 123.917 773.83 123.917 777.059C123.912 780.313 122.496 782.189 120.112 782.189ZM118.101 777.059C118.101 779.438 118.87 780.68 120.112 780.68C121.35 780.68 122.119 779.438 122.119 777.059C122.114 774.695 121.345 773.448 120.112 773.448C118.875 773.448 118.106 774.695 118.101 777.059ZM125.505 782V772.099H129.208C131.485 772.099 132.699 773.487 132.699 775.377C132.699 777.277 131.471 778.65 129.184 778.65H127.28V782H125.505ZM127.28 777.185H128.947C130.282 777.185 130.881 776.431 130.881 775.377C130.881 774.323 130.282 773.588 128.938 773.588H127.28V777.185Z" fill="#F70778"/>
<rect x="321" y="748" width="46.2" height="33" rx="8" fill="#FF0078"/>
<path d="M342.55 759.015V759.96C342.55 760.95 342.55 762.036 342.268 763.532H343.731V764.593H339.525V768.972H338.212V764.593H334.08V763.532H340.951C341.241 762.09 341.253 761.012 341.253 760.064H335.224V759.015H342.55ZM353.588 758.373V768.956H352.337V763.532H351.21V768.45H349.975V758.555H351.21V762.463H352.337V758.373H353.588ZM344.779 766.233V759.517H348.939V766.233H344.779ZM346.001 765.206H347.717V760.544H346.001V765.206Z" fill="#F9F9F9"/>
<path d="M68.4268 756L80.2344 744.192L89.4268 753.385L77.6191 765.192L89.6611 777.234L80.4688 786.427L68.4268 774.385L56.1924 786.619L47 777.427L59.2344 765.192L47.2344 753.192L56.4268 744L68.4268 756Z" fill="#FF5AA8"/>
<path d="M279.264 770L279.261 769.078L281.757 766.671C282.472 765.956 282.845 765.535 282.849 764.945C282.845 764.282 282.324 763.867 281.63 763.867C280.904 763.867 280.435 764.323 280.438 765.041H279.23C279.223 763.702 280.228 762.831 281.647 762.831C283.087 762.831 284.061 763.695 284.064 764.879C284.061 765.68 283.677 766.326 282.286 767.638L281.032 768.885V768.936H284.171V770H279.264ZM292.572 762.044V770.863H291.526V766.336H290.576V770.456H289.565V762.279H290.576V765.456H291.526V762.044H292.572ZM284.924 768.267C286.802 767.189 287.6 765.794 287.755 764.03H285.331V763.149H288.815C288.808 765.539 288.056 767.59 285.552 769.023L284.924 768.267ZM304.078 768.916V769.803H296.008V768.916H299.486V767.196H296.896V762.628H297.983V764.071H302.072V762.628H303.153V767.196H300.563V768.916H304.078ZM297.983 766.323H302.072V764.941H297.983V766.323ZM312.71 766.989V767.869H310.742V770.863H309.644V767.869H307.683V770.863H306.571V767.869H304.641V766.989H312.71ZM305.487 764.33C305.483 763.128 306.775 762.358 308.653 762.358C310.535 762.358 311.833 763.128 311.833 764.33C311.833 765.511 310.535 766.26 308.653 766.257C306.775 766.26 305.483 765.511 305.487 764.33ZM306.605 764.33C306.598 765.003 307.406 765.397 308.653 765.397C309.906 765.397 310.711 765.003 310.714 764.33C310.711 763.636 309.906 763.232 308.653 763.232C307.406 763.232 306.598 763.636 306.605 764.33Z" fill="#8A8A8A"/>
<path d="M322.902 152.531V162.949H322V157.559H320.5V162.41H319.633V152.766H320.5V156.773H322V152.531H322.902ZM315.449 153.809V159.434C316.486 159.422 317.588 159.352 318.859 159.094L318.977 159.914C317.523 160.172 316.328 160.254 315.18 160.254H314.535V153.809H315.449ZM335.629 153.211V154.125C335.629 155.115 335.629 156.188 335.336 157.688H336.883V158.449H332.582V162.973H331.656V158.449H327.391V157.688H334.398C334.715 156.188 334.715 155.092 334.715 154.125V153.973H328.586V153.211H335.629ZM346.363 152.531V158.121H345.449V152.531H346.363ZM340.527 158.648V159.914H345.449V158.648H346.363V162.809H339.613V158.648H340.527ZM340.527 162.059H345.449V160.652H340.527V162.059ZM340.738 153.047C342.32 153.035 343.469 154.008 343.469 155.438C343.469 156.855 342.32 157.828 340.738 157.828C339.156 157.828 338.008 156.855 338.008 155.438C338.008 154.008 339.156 153.035 340.738 153.047ZM340.738 153.82C339.672 153.809 338.898 154.488 338.91 155.438C338.898 156.387 339.672 157.066 340.738 157.066C341.793 157.066 342.566 156.387 342.566 155.438C342.566 154.488 341.793 153.809 340.738 153.82ZM360.039 152.531V162.949H359.137V157.559H357.637V162.41H356.77V152.766H357.637V156.773H359.137V152.531H360.039ZM352.586 153.809V159.434C353.623 159.422 354.725 159.352 355.996 159.094L356.113 159.914C354.66 160.172 353.465 160.254 352.316 160.254H351.672V153.809H352.586ZM370.152 159.246V162.949H369.227V159.984H363.145V159.246H370.152ZM370.152 152.531V158.672H369.227V157.172H366.543C366.057 157.764 365.289 158.115 364.387 158.109C362.828 158.121 361.68 157.09 361.68 155.613C361.68 154.16 362.828 153.129 364.387 153.129C365.283 153.129 366.051 153.48 366.543 154.066H369.227V152.531H370.152ZM364.387 153.914C363.32 153.914 362.559 154.629 362.559 155.613C362.559 156.633 363.32 157.336 364.387 157.336C365.406 157.336 366.191 156.633 366.191 155.613C366.191 154.629 365.406 153.914 364.387 153.914ZM366.953 156.41H369.227V154.828H366.953C367.035 155.074 367.082 155.332 367.082 155.613C367.082 155.895 367.035 156.164 366.953 156.41ZM380.922 158.238L375.566 160.945V159.855L379.621 157.922V157.852L375.566 155.906V154.816L380.922 157.535V158.238Z" fill="white" fill-opacity="0.65"/>
<rect x="34" y="170" width="65" height="22" rx="11" fill="#FF0078"/>
<rect x="34" y="278" width="65" height="22" rx="11" fill="#FF0078"/>
<path d="M57.7148 185V176.516H59.4727V180.031H63.1523V176.516H64.9219V185H63.1523V181.484H59.4727V185H57.7148ZM68.1094 176.516V185H66.3516V176.516H68.1094ZM69.2109 177.969V176.516H76.1602V177.969H73.5586V185H71.8125V177.969H69.2109Z" fill="#F9F9F9"/>
<path d="M57.7148 293V284.516H59.4727V288.031H63.1523V284.516H64.9219V293H63.1523V289.484H59.4727V293H57.7148ZM68.1094 284.516V293H66.3516V284.516H68.1094ZM69.2109 285.969V284.516H76.1602V285.969H73.5586V293H71.8125V285.969H69.2109Z" fill="#F9F9F9"/>
</g>
<defs>
<filter id="filter0_d_102_6037" x="-15" y="40" width="432" height="97" filterUnits="userSpaceOnUse" color-interpolation-filters="sRGB">
<feFlood flood-opacity="0" result="BackgroundImageFix"/>
<feColorMatrix in="SourceAlpha" type="matrix" values="0 0 0 0 0 0 0 0 0 0 0 0 0 0 0 0 0 0 127 0" result="hardAlpha"/>
<feOffset/>
<feGaussianBlur stdDeviation="7.5"/>
<feComposite in2="hardAlpha" operator="out"/>
<feColorMatrix type="matrix" values="0 0 0 0 0 0 0 0 0 0 0 0 0 0 0 0 0 0 0.8 0"/>
<feBlend mode="normal" in2="BackgroundImageFix" result="effect1_dropShadow_102_6037"/>
<feBlend mode="normal" in="SourceGraphic" in2="effect1_dropShadow_102_6037" result="shape"/>
</filter>
<clipPath id="clip0_102_6037">
<rect width="402" height="874" fill="white"/>
</clipPath>
</defs>
</svg>
